<?xml version="1.0" standalone="no"?>
 <!DOCTYPE svg PUBLIC "-//W3C//DTD SVG 1.1//EN" 
 "http://www.w3.org/Graphics/SVG/1.1/DTD/svg11.dtd"> 
<svg
  xmlns:svg="http://www.w3.org/2000/svg"
  xmlns="http://www.w3.org/2000/svg"
  xmlns:xlink="http://www.w3.org/1999/xlink"
  version="1.1"
  width="25.0952mm" height="17.0942mm" viewBox="0.0000 0.0000 25.0952 17.0942">
<title>SVG Image created as QMC5883L-Edge_Cuts.svg date 2025/05/20 22:52:53 </title>
  <desc>Image generated by PCBNEW </desc>
<g style="fill:#000000; fill-opacity:1.0000;stroke:#000000; stroke-opacity:1.0000;
stroke-linecap:round; stroke-linejoin:round;"
 transform="translate(0 0) scale(1 1)">
<path style="fill:none; 
stroke:#D0D2CD; stroke-width:0.0500; stroke-opacity:1; 
stroke-linecap:round; stroke-linejoin:round;fill:none"
d="M 0.0500,0.0500
25.0500,0.0500
25.0500,17.0500
0.0500,17.0500
Z" /> 
<path style="fill:#4D7FC4; fill-opacity:1.0000; stroke:none;fill-rule:evenodd;"
d="M 4.9000,2.6600
4.9000,4.3600
3.2000,4.3600
3.2000,2.6600
Z" /> 
</g>
<g style="fill:#4D7FC4; fill-opacity:1.0000; stroke:none;">
<circle cx="4.0500" cy="6.0500" r="0.8500" /> 
</g>
<g style="fill:#4D7FC4; fill-opacity:1.0000; stroke:none;">
<circle cx="4.0500" cy="8.5900" r="0.8500" /> 
</g>
<g style="fill:#4D7FC4; fill-opacity:1.0000; stroke:none;">
<circle cx="4.0500" cy="11.1300" r="0.8500" /> 
</g>
<g style="fill:#4D7FC4; fill-opacity:1.0000; stroke:none;">
<circle cx="4.0500" cy="13.6700" r="0.8500" /> 
</g>
<g style="fill:#4D7FC4; fill-opacity:1.0000; stroke:none;">
<circle cx="14.3400" cy="5.3600" r="0.2500" /> 
</g>
<g style="fill:#4D7FC4; fill-opacity:1.0000; stroke:none;">
<circle cx="17.0500" cy="7.5000" r="0.2500" /> 
</g>
<g style="fill:#4D7FC4; fill-opacity:1.0000; stroke:none;">
<circle cx="19.6000" cy="5.5800" r="0.2500" /> 
</g>
<g style="fill:none; 
stroke:#4D7FC4; stroke-width:0.3000; stroke-opacity:1; 
stroke-linecap:round; stroke-linejoin:round;">
<path d="M6.0400 13.6700
L4.0500 13.6700
" />
<path d="M14.3400 5.3700
L6.0400 13.6700
" />
<path d="M14.3400 5.3600
L14.3400 5.3700
" />
<path d="M17.6800 7.5000
L19.6000 5.5800
" />
<path d="M17.0500 7.5000
L17.6800 7.5000
" />
<path style="fill:#4D7FC4; fill-opacity:1.0000; stroke:none;fill-rule:evenodd;"
d="M 24.7925,0.2702
24.8383,0.3230
24.8495,0.3745
24.8495,16.7255
24.8298,16.7925
24.7770,16.8383
24.7255,16.8495
0.3745,16.8495
0.3075,16.8298
0.2617,16.7770
0.2505,16.7255
0.2505,2.6121
2.6995,2.6121
2.6995,4.4079
2.6995,4.4079
2.7059,4.4675
2.7562,4.6023
2.7562,4.6023
2.8425,4.7175
2.8425,4.7175
2.9577,4.8038
2.9577,4.8038
3.0026,4.8206
3.0925,4.8541
3.1521,4.8605
3.1627,4.8605
3.2297,4.8802
3.2504,4.8968
3.9206,5.5670
3.8570,5.5841
3.7430,5.6499
3.6499,5.7430
3.5841,5.8570
3.5670,5.9206
2.9347,5.2883
2.9347,5.2883
2.8954,5.3424
2.7989,5.5318
2.7332,5.7339
2.7332,5.7339
2.7000,5.9438
2.7000,6.1562
2.7332,6.3661
2.7332,6.3661
2.7989,6.5682
2.8954,6.7575
2.9347,6.8117
3.5670,6.1794
3.5841,6.2430
3.6499,6.3570
3.7430,6.4501
3.8570,6.5159
3.9206,6.5330
3.2883,7.1653
3.2883,7.1653
3.3425,7.2046
3.3425,7.2046
3.3515,7.2092
3.4023,7.2572
3.4191,7.3250
3.3965,7.3912
3.3515,7.4302
3.3422,7.4349
3.1702,7.5599
3.0199,7.7102
2.8950,7.8822
2.7984,8.0716
2.7328,8.2738
2.6995,8.4837
2.6995,8.6963
2.7328,8.9062
2.7984,9.1084
2.8950,9.2978
3.0199,9.4698
3.1702,9.6201
3.3422,9.7450
3.3509,9.7495
3.4017,9.7975
3.4185,9.8653
3.3960,9.9314
3.3509,9.9705
3.3422,9.9749
3.1702,10.0999
3.0199,10.2502
2.8950,10.4222
2.7984,10.6116
2.7328,10.8138
2.6995,11.0237
2.6995,11.2363
2.7328,11.4462
2.7984,11.6484
2.8950,11.8378
3.0199,12.0098
3.1702,12.1601
3.3422,12.2851
3.3509,12.2895
3.4017,12.3375
3.4185,12.4053
3.3960,12.4714
3.3509,12.5105
3.3422,12.5149
3.1702,12.6399
3.0199,12.7902
2.8950,12.9622
2.7984,13.1516
2.7328,13.3538
2.6995,13.5637
2.6995,13.7763
2.7328,13.9862
2.7942,14.1753
2.7984,14.1884
2.8950,14.3778
3.0199,14.5498
3.1702,14.7001
3.3422,14.8250
3.3422,14.8250
3.3422,14.8251
3.5316,14.9216
3.7338,14.9872
3.9437,15.0205
3.9437,15.0205
4.1563,15.0205
4.1563,15.0205
4.3662,14.9872
4.5684,14.9216
4.5684,14.9216
4.5684,14.9216
4.5684,14.9216
4.5948,14.9081
4.7578,14.8251
4.7578,14.8250
4.7604,14.8237
4.7649,14.8215
5.8305,14.3318
5.8823,14.3205
6.1041,14.3205
6.1886,14.3037
6.2297,14.2955
6.3481,14.2465
6.3643,14.2356
6.4547,14.1753
13.0560,7.5739
16.2995,7.5739
16.3283,7.7189
16.3283,7.7189
16.3849,7.8555
16.3849,7.8555
16.4670,7.9784
16.4671,7.9784
16.5716,8.0829
16.5716,8.0830
16.6945,8.1651
16.6945,8.1651
16.8311,8.2217
16.8311,8.2217
16.8311,8.2217
16.8311,8.2217
16.9761,8.2505
16.9761,8.2505
17.1239,8.2505
17.1408,8.2471
17.1708,8.2412
17.1866,8.2391
17.2158,8.2371
17.6092,8.1532
17.6350,8.1505
17.7441,8.1505
17.8286,8.1337
17.8697,8.1255
17.9881,8.0765
17.9954,8.0716
17.9954,8.0716
18.0697,8.0220
18.0947,8.0053
19.6463,6.4536
19.6665,6.4373
20.0041,6.2184
20.0517,6.1834
20.0517,6.1834
20.0560,6.1795
20.0702,6.1684
20.0784,6.1630
20.1830,6.0584
20.2651,5.9355
20.3217,5.7989
20.3383,5.7155
20.3505,5.6539
20.3505,5.5061
20.3217,5.3611
20.3217,5.3611
20.3217,5.3611
20.2960,5.2992
20.2651,5.2245
20.2651,5.2245
20.1830,5.1016
20.1829,5.1016
20.0784,4.9971
20.0784,4.9970
19.9555,4.9149
19.9555,4.9149
19.8189,4.8583
19.8189,4.8583
19.6739,4.8295
19.6739,4.8295
19.5261,4.8295
19.5261,4.8295
19.3811,4.8583
19.3811,4.8583
19.2445,4.9149
19.2445,4.9149
19.1216,4.9970
19.1216,4.9971
19.0171,5.1016
18.9905,5.1413
18.9808,5.1540
18.9616,5.1760
18.9616,5.1760
18.7427,5.5135
18.7264,5.5337
17.4954,6.7647
17.4340,6.7982
17.3818,6.7983
17.2158,6.7629
17.2085,6.7614
17.2085,6.7614
17.2085,6.7614
17.2085,6.7614
17.1573,6.7539
17.1573,6.7539
17.1573,6.7539
17.1520,6.7537
17.1337,6.7514
17.1239,6.7495
17.1239,6.7495
16.9761,6.7495
16.9761,6.7495
16.8311,6.7783
16.8311,6.7783
16.6945,6.8349
16.6945,6.8349
16.5716,6.9170
16.5716,6.9171
16.4671,7.0216
16.4670,7.0216
16.3849,7.1445
16.3849,7.1445
16.3283,7.2811
16.3283,7.2811
16.2995,7.4261
16.2995,7.4261
16.2995,7.5739
16.2995,7.5739
16.2995,7.5739
13.0560,7.5739
14.3934,6.2365
14.4120,6.2212
14.7507,5.9942
14.7929,5.9626
14.7929,5.9626
14.7967,5.9592
14.8114,5.9476
14.8148,5.9453
14.8184,5.9430
14.9230,5.8384
15.0051,5.7155
15.0617,5.5789
15.0905,5.4339
15.0905,5.2861
15.0905,5.2861
15.0617,5.1411
15.0617,5.1411
15.0617,5.1411
15.0617,5.1411
15.0051,5.0045
15.0051,5.0045
14.9230,4.8816
14.9229,4.8816
14.8184,4.7771
14.8184,4.7770
14.6955,4.6949
14.6955,4.6949
14.5589,4.6383
14.5589,4.6383
14.4139,4.6095
14.4139,4.6095
14.2661,4.6095
14.2661,4.6095
14.1211,4.6383
14.1211,4.6383
13.9845,4.6949
13.9845,4.6949
13.8616,4.7770
13.7570,4.8816
13.7570,4.8816
13.7267,4.9270
13.7182,4.9382
13.6975,4.9627
13.6975,4.9627
13.4865,5.2992
13.4691,5.3210
5.8582,12.9318
5.7969,12.9653
5.7272,12.9603
5.7188,12.9568
5.3562,12.7902
4.7649,12.5185
4.7604,12.5163
4.7491,12.5105
4.6983,12.4625
4.6815,12.3947
4.7040,12.3286
4.7491,12.2895
4.7578,12.2851
4.7798,12.2691
4.9298,12.1601
4.9298,12.1601
4.9298,12.1601
5.0801,12.0098
5.0801,12.0098
5.0801,12.0098
5.2050,11.8378
5.2050,11.8378
5.2051,11.8378
5.3016,11.6484
5.3672,11.4462
5.4005,11.2363
5.4005,11.0237
5.3672,10.8138
5.3016,10.6116
5.2051,10.4222
5.2050,10.4222
5.2050,10.4222
5.0801,10.2502
4.9298,10.0999
4.7578,9.9750
4.7571,9.9746
4.7491,9.9705
4.6983,9.9225
4.6815,9.8547
4.7040,9.7886
4.7491,9.7495
4.7578,9.7451
4.7798,9.7291
4.9298,9.6201
4.9298,9.6201
4.9298,9.6201
5.0801,9.4698
5.0801,9.4698
5.0801,9.4698
5.2050,9.2978
5.2050,9.2978
5.2051,9.2978
5.3016,9.1084
5.3672,8.9062
5.4005,8.6963
5.4005,8.4837
5.3672,8.2738
5.3016,8.0716
5.2051,7.8822
5.2050,7.8822
5.2050,7.8822
5.0801,7.7102
4.9298,7.5599
4.7578,7.4349
4.7485,7.4302
4.6977,7.3822
4.6809,7.3144
4.7034,7.2483
4.7485,7.2092
4.7576,7.2046
4.8117,7.1653
4.8117,7.1653
4.1794,6.5330
4.2430,6.5159
4.3570,6.4501
4.4501,6.3570
4.5159,6.2430
4.5330,6.1794
5.1653,6.8117
5.1653,6.8117
5.2046,6.7576
5.3011,6.5682
5.3668,6.3661
5.3668,6.3661
5.4000,6.1562
5.4000,5.9438
5.3668,5.7339
5.3668,5.7339
5.3011,5.5318
5.2046,5.3424
5.1653,5.2883
5.1653,5.2883
4.5330,5.9206
4.5159,5.8570
4.4501,5.7430
4.3570,5.6499
4.2430,5.5841
4.1794,5.5670
4.8496,4.8968
4.9109,4.8633
4.9373,4.8605
4.9479,4.8605
5.0075,4.8541
5.1423,4.8038
5.2575,4.7175
5.3438,4.6023
5.3941,4.4675
5.4005,4.4079
5.4005,2.6121
5.3941,2.5525
5.3438,2.4177
5.3438,2.4177
5.3438,2.4177
5.2575,2.3025
5.2575,2.3025
5.1423,2.2162
5.1423,2.2162
5.0075,2.1659
5.0075,2.1659
4.9479,2.1595
4.9479,2.1595
4.9479,2.1595
4.9479,2.1595
3.1521,2.1595
3.1521,2.1595
3.0925,2.1659
2.9577,2.2162
2.9577,2.2162
2.8425,2.3025
2.8425,2.3025
2.7562,2.4177
2.7562,2.4177
2.7059,2.5525
2.6995,2.6121
2.6995,2.6121
2.6995,2.6121
0.2505,2.6121
0.2505,0.3745
0.2702,0.3075
0.3230,0.2617
0.3745,0.2505
24.7255,0.2505
Z" /> 
<path style="fill:#4D7FC4; fill-opacity:1.0000; stroke:none;fill-rule:evenodd;"
d="M 5.7337,13.8200
5.7337,13.5200
4.5222,12.9633
4.0490,13.6700
4.5222,14.3767
Z" /> 
<path style="fill:#4D7FC4; fill-opacity:1.0000; stroke:none;fill-rule:evenodd;"
d="M 13.8888,5.6091
14.1009,5.8212
14.4789,5.5679
14.3407,5.3593
14.1321,5.2211
Z" /> 
<path style="fill:#4D7FC4; fill-opacity:1.0000; stroke:none;fill-rule:evenodd;"
d="M 19.1438,5.8241
19.3559,6.0362
19.7389,5.7879
19.6007,5.5793
19.3921,5.4411
Z" /> 
<path style="fill:#4D7FC4; fill-opacity:1.0000; stroke:none;fill-rule:evenodd;"
d="M 17.5452,7.6500
17.5452,7.3500
17.0988,7.2548
17.0490,7.5000
17.0988,7.7452
Z" /> 
<path style="fill:#02FFEE; fill-opacity:0.4000; stroke:none;fill-rule:evenodd;"
d="M 4.9000,2.6600
4.9000,4.3600
3.2000,4.3600
3.2000,2.6600
Z" /> 
</g>
<g style="fill:#02FFEE; fill-opacity:0.4000; stroke:none;">
<circle cx="4.0500" cy="6.0500" r="0.8500" /> 
</g>
<g style="fill:#02FFEE; fill-opacity:0.4000; stroke:none;">
<circle cx="4.0500" cy="8.5900" r="0.8500" /> 
</g>
<g style="fill:#02FFEE; fill-opacity:0.4000; stroke:none;">
<circle cx="4.0500" cy="11.1300" r="0.8500" /> 
</g>
<g style="fill:#02FFEE; fill-opacity:0.4000; stroke:none;">
<circle cx="4.0500" cy="13.6700" r="0.8500" /> 
</g>
<g style="fill:none; 
stroke:#E8B2A7; stroke-width:0.1200; stroke-opacity:1; 
stroke-linecap:round; stroke-linejoin:round;">
<text x="4.0500" y="8.9400"
transform="scale(-1 1) translate(-8.100000 0)"
textLength="1.4200" font-size="0.9333" lengthAdjust="spacingAndGlyphs"
text-anchor="middle" opacity="0" stroke-opacity="0">J1</text>
<g class="stroked-text"><desc>J1</desc>
<path d="M4.2833 8.2076
L4.2833 8.7076
" />
<path d="M4.2833 8.7076
L4.3167 8.8076
" />
<path d="M4.3167 8.8076
L4.3833 8.8743
" />
<path d="M4.3833 8.8743
L4.4833 8.9076
" />
<path d="M4.4833 8.9076
L4.5500 8.9076
" />
<path d="M3.5833 8.9076
L3.9833 8.9076
" />
<path d="M3.7833 8.9076
L3.7833 8.2076
" />
<path d="M3.7833 8.2076
L3.8500 8.3076
" />
<path d="M3.8500 8.3076
L3.9167 8.3743
" />
<path d="M3.9167 8.3743
L3.9833 8.4076
" />
</g><path d="M5.4300 2.1300
L4.0500 2.1300
" />
<path d="M5.4300 3.5100
L5.4300 2.1300
" />
<path d="M5.4300 4.7800
L5.4300 15.0500
" />
<path d="M5.4300 4.7800
L2.6700 4.7800
" />
<path d="M5.4300 15.0500
L2.6700 15.0500
" />
<path d="M2.6700 4.7800
L2.6700 15.0500
" />
</g>
<g style="fill:none; 
stroke:#C83434; stroke-width:0.3000; stroke-opacity:1; 
stroke-linecap:round; stroke-linejoin:round;">
<path d="M12.1750 8.5500
L13.8250 8.5500
" />
<path d="M12.1750 9.0500
L13.8250 9.0500
" />
<path d="M12.1750 9.5500
L13.8250 9.5500
" />
<path d="M12.1750 10.0500
L13.8250 10.0500
" />
<path d="M14.2750 10.5000
L14.2750 12.1500
" />
<path d="M14.7750 10.5000
L14.7750 12.1500
" />
<path d="M15.2750 10.5000
L15.2750 12.1500
" />
<path d="M15.7750 10.5000
L15.7750 12.1500
" />
<path d="M16.2250 10.0500
L17.8750 10.0500
" />
<path d="M16.2250 9.5500
L17.8750 9.5500
" />
<path d="M16.2250 9.0500
L17.8750 9.0500
" />
<path d="M16.2250 8.5500
L17.8750 8.5500
" />
<path d="M15.7750 6.4500
L15.7750 8.1000
" />
<path d="M15.2750 6.4500
L15.2750 8.1000
" />
<path d="M14.7750 6.4500
L14.7750 8.1000
" />
<path d="M14.2750 6.4500
L14.2750 8.1000
" />
<path style="fill:#C83434; fill-opacity:1.0000; stroke:none;fill-rule:evenodd;"
d="M 8.6750,3.0250
8.7707,3.0440
8.8518,3.0982
8.9060,3.1793
8.9250,3.2750
8.9250,3.9000
8.9060,3.9957
8.8518,4.0768
8.7707,4.1310
8.6750,4.1500
7.4250,4.1500
7.3293,4.1310
7.2482,4.0768
7.1940,3.9957
7.1750,3.9000
7.1750,3.2750
7.1940,3.1793
7.2482,3.0982
7.3293,3.0440
7.4250,3.0250
Z" /> 
<path style="fill:#C83434; fill-opacity:1.0000; stroke:none;fill-rule:evenodd;"
d="M 8.6750,5.9500
8.7707,5.9690
8.8518,6.0232
8.9060,6.1043
8.9250,6.2000
8.9250,6.8250
8.9060,6.9207
8.8518,7.0018
8.7707,7.0560
8.6750,7.0750
7.4250,7.0750
7.3293,7.0560
7.2482,7.0018
7.1940,6.9207
7.1750,6.8250
7.1750,6.2000
7.1940,6.1043
7.2482,6.0232
7.3293,5.9690
7.4250,5.9500
Z" /> 
<path style="fill:#C83434; fill-opacity:1.0000; stroke:none;fill-rule:evenodd;"
d="M 11.6750,3.0250
11.7707,3.0440
11.8518,3.0982
11.9060,3.1793
11.9250,3.2750
11.9250,3.9000
11.9060,3.9957
11.8518,4.0768
11.7707,4.1310
11.6750,4.1500
10.4250,4.1500
10.3293,4.1310
10.2482,4.0768
10.1940,3.9957
10.1750,3.9000
10.1750,3.2750
10.1940,3.1793
10.2482,3.0982
10.3293,3.0440
10.4250,3.0250
Z" /> 
<path style="fill:#C83434; fill-opacity:1.0000; stroke:none;fill-rule:evenodd;"
d="M 11.6750,5.9500
11.7707,5.9690
11.8518,6.0232
11.9060,6.1043
11.9250,6.2000
11.9250,6.8250
11.9060,6.9207
11.8518,7.0018
11.7707,7.0560
11.6750,7.0750
10.4250,7.0750
10.3293,7.0560
10.2482,7.0018
10.1940,6.9207
10.1750,6.8250
10.1750,6.2000
10.1940,6.1043
10.2482,6.0232
10.3293,5.9690
10.4250,5.9500
Z" /> 
<path style="fill:#C83434; fill-opacity:1.0000; stroke:none;fill-rule:evenodd;"
d="M 4.9000,2.6600
4.9000,4.3600
3.2000,4.3600
3.2000,2.6600
Z" /> 
</g>
<g style="fill:#C83434; fill-opacity:1.0000; stroke:none;">
<circle cx="4.0500" cy="6.0500" r="0.8500" /> 
</g>
<g style="fill:#C83434; fill-opacity:1.0000; stroke:none;">
<circle cx="4.0500" cy="8.5900" r="0.8500" /> 
</g>
<g style="fill:#C83434; fill-opacity:1.0000; stroke:none;">
<circle cx="4.0500" cy="11.1300" r="0.8500" /> 
</g>
<g style="fill:#C83434; fill-opacity:1.0000; stroke:none;">
<circle cx="4.0500" cy="13.6700" r="0.8500" /> 
<path style="fill:#C83434; fill-opacity:1.0000; stroke:none;fill-rule:evenodd;"
d="M 21.7000,10.0000
21.7957,10.0190
21.8768,10.0732
21.9310,10.1543
21.9500,10.2500
21.9500,10.9000
21.9310,10.9957
21.8768,11.0768
21.7957,11.1310
21.7000,11.1500
20.4000,11.1500
20.3043,11.1310
20.2232,11.0768
20.1690,10.9957
20.1500,10.9000
20.1500,10.2500
20.1690,10.1543
20.2232,10.0732
20.3043,10.0190
20.4000,10.0000
Z" /> 
<path style="fill:#C83434; fill-opacity:1.0000; stroke:none;fill-rule:evenodd;"
d="M 21.7000,12.9500
21.7957,12.9690
21.8768,13.0232
21.9310,13.1043
21.9500,13.2000
21.9500,13.8500
21.9310,13.9457
21.8768,14.0268
21.7957,14.0810
21.7000,14.1000
20.4000,14.1000
20.3043,14.0810
20.2232,14.0268
20.1690,13.9457
20.1500,13.8500
20.1500,13.2000
20.1690,13.1043
20.2232,13.0232
20.3043,12.9690
20.4000,12.9500
Z" /> 
<path style="fill:#C83434; fill-opacity:1.0000; stroke:none;fill-rule:evenodd;"
d="M 20.4700,9.1000
20.3743,9.0810
20.2932,9.0268
20.2390,8.9457
20.2200,8.8500
20.2200,8.2000
20.2390,8.1043
20.2932,8.0232
20.3743,7.9690
20.4700,7.9500
21.7700,7.9500
21.8657,7.9690
21.9468,8.0232
22.0010,8.1043
22.0200,8.2000
22.0200,8.8500
22.0010,8.9457
21.9468,9.0268
21.8657,9.0810
21.7700,9.1000
Z" /> 
<path style="fill:#C83434; fill-opacity:1.0000; stroke:none;fill-rule:evenodd;"
d="M 20.4700,6.1500
20.3743,6.1310
20.2932,6.0768
20.2390,5.9957
20.2200,5.9000
20.2200,5.2500
20.2390,5.1543
20.2932,5.0732
20.3743,5.0190
20.4700,5.0000
21.7700,5.0000
21.8657,5.0190
21.9468,5.0732
22.0010,5.1543
22.0200,5.2500
22.0200,5.9000
22.0010,5.9957
21.9468,6.0768
21.8657,6.1310
21.7700,6.1500
Z" /> 
<path style="fill:#C83434; fill-opacity:1.0000; stroke:none;fill-rule:evenodd;"
d="M 10.7000,10.0000
10.7957,10.0190
10.8768,10.0732
10.9310,10.1543
10.9500,10.2500
10.9500,10.9000
10.9310,10.9957
10.8768,11.0768
10.7957,11.1310
10.7000,11.1500
9.4000,11.1500
9.3043,11.1310
9.2232,11.0768
9.1690,10.9957
9.1500,10.9000
9.1500,10.2500
9.1690,10.1543
9.2232,10.0732
9.3043,10.0190
9.4000,10.0000
Z" /> 
<path style="fill:#C83434; fill-opacity:1.0000; stroke:none;fill-rule:evenodd;"
d="M 10.7000,12.9500
10.7957,12.9690
10.8768,13.0232
10.9310,13.1043
10.9500,13.2000
10.9500,13.8500
10.9310,13.9457
10.8768,14.0268
10.7957,14.0810
10.7000,14.1000
9.4000,14.1000
9.3043,14.0810
9.2232,14.0268
9.1690,13.9457
9.1500,13.8500
9.1500,13.2000
9.1690,13.1043
9.2232,13.0232
9.3043,12.9690
9.4000,12.9500
Z" /> 
<path style="fill:#C83434; fill-opacity:1.0000; stroke:none;fill-rule:evenodd;"
d="M 15.0000,3.4000
15.0190,3.3043
15.0732,3.2232
15.1543,3.1690
15.2500,3.1500
15.9000,3.1500
15.9957,3.1690
16.0768,3.2232
16.1310,3.3043
16.1500,3.4000
16.1500,4.7000
16.1310,4.7957
16.0768,4.8768
15.9957,4.9310
15.9000,4.9500
15.2500,4.9500
15.1543,4.9310
15.0732,4.8768
15.0190,4.7957
15.0000,4.7000
Z" /> 
<path style="fill:#C83434; fill-opacity:1.0000; stroke:none;fill-rule:evenodd;"
d="M 17.9500,3.4000
17.9690,3.3043
18.0232,3.2232
18.1043,3.1690
18.2000,3.1500
18.8500,3.1500
18.9457,3.1690
19.0268,3.2232
19.0810,3.3043
19.1000,3.4000
19.1000,4.7000
19.0810,4.7957
19.0268,4.8768
18.9457,4.9310
18.8500,4.9500
18.2000,4.9500
18.1043,4.9310
18.0232,4.8768
17.9690,4.7957
17.9500,4.7000
Z" /> 
</g>
<g style="fill:#C83434; fill-opacity:1.0000; stroke:none;">
<circle cx="14.3400" cy="5.3600" r="0.2500" /> 
</g>
<g style="fill:#C83434; fill-opacity:1.0000; stroke:none;">
<circle cx="17.0500" cy="7.5000" r="0.2500" /> 
</g>
<g style="fill:#C83434; fill-opacity:1.0000; stroke:none;">
<circle cx="19.6000" cy="5.5800" r="0.2500" /> 
</g>
<g style="fill:none; 
stroke:#C83434; stroke-width:0.1800; stroke-opacity:1; 
stroke-linecap:round; stroke-linejoin:round;">
<path d="M2.6700 9.7500
L4.0500 11.1300
" />
<path d="M3.1700 7.3200
L2.6700 7.8200
" />
<path d="M2.6700 7.8200
L2.6700 9.7500
" />
<path d="M6.9400 5.3200
L4.9400 7.3200
" />
<path d="M9.8575 5.3200
L6.9400 5.3200
" />
<path d="M4.9400 7.3200
L3.1700 7.3200
" />
<path d="M11.0500 6.5125
L9.8575 5.3200
" />
</g>
<g style="fill:none; 
stroke:#C83434; stroke-width:1.0000; stroke-opacity:1; 
stroke-linecap:round; stroke-linejoin:round;">
<path d="M3.0600 15.6000
L7.9750 15.6000
" />
<path d="M1.5990 14.1390
L3.0600 15.6000
" />
<path d="M1.5990 13.4124
L1.5990 14.1390
" />
<path d="M7.9750 15.6000
L10.0500 13.5250
" />
<path d="M1.5990 2.8910
L1.6100 2.8800
" />
<path d="M1.5990 13.4124
L1.5990 2.8910
" />
<path d="M2.9800 1.5100
L15.9850 1.5100
" />
<path d="M1.6100 2.8800
L2.9800 1.5100
" />
<path d="M1.6100 6.0500
L1.6100 2.8800
" />
<path d="M15.9850 1.5100
L18.5250 4.0500
" />
<path d="M4.0500 6.0500
L1.6100 6.0500
" />
<path d="M1.7000 6.0500
L1.5990 6.1510
" />
<path d="M4.0500 6.0500
L1.7000 6.0500
" />
<path d="M1.5990 6.1510
L1.5990 13.4124
" />
</g>
<g style="fill:none; 
stroke:#C83434; stroke-width:0.3000; stroke-opacity:1; 
stroke-linecap:round; stroke-linejoin:round;">
<path d="M14.7750 5.7950
L14.3400 5.3600
" />
<path d="M14.7750 7.2750
L14.7750 5.7950
" />
<path d="M12.1300 10.0500
L13.0000 10.0500
" />
<path d="M11.6050 10.5750
L12.1300 10.0500
" />
</g>
<g style="fill:none; 
stroke:#C83434; stroke-width:0.5000; stroke-opacity:1; 
stroke-linecap:round; stroke-linejoin:round;">
<path d="M10.0500 10.5750
L11.6050 10.5750
" />
</g>
<g style="fill:none; 
stroke:#C83434; stroke-width:0.3000; stroke-opacity:1; 
stroke-linecap:round; stroke-linejoin:round;">
<path d="M18.7600 4.2850
L18.5250 4.0500
" />
</g>
<g style="fill:none; 
stroke:#C83434; stroke-width:0.5000; stroke-opacity:1; 
stroke-linecap:round; stroke-linejoin:round;">
<path d="M18.7600 8.4850
L18.7600 4.2850
" />
</g>
<g style="fill:none; 
stroke:#C83434; stroke-width:0.3000; stroke-opacity:1; 
stroke-linecap:round; stroke-linejoin:round;">
<path d="M18.1950 9.0500
L18.7600 8.4850
" />
<path d="M17.0500 9.0500
L18.1950 9.0500
" />
</g>
<g style="fill:none; 
stroke:#C83434; stroke-width:1.0000; stroke-opacity:1; 
stroke-linecap:round; stroke-linejoin:round;">
<path d="M22.1450 13.5250
L21.0500 13.5250
" />
<path d="M23.9100 11.7600
L22.1450 13.5250
" />
<path d="M23.9100 5.2400
L23.9100 11.7600
" />
<path d="M22.1700 3.5000
L23.9100 5.2400
" />
<path d="M19.0750 3.5000
L22.1700 3.5000
" />
<path d="M18.5250 4.0500
L19.0750 3.5000
" />
<path d="M21.0500 13.5250
L10.0500 13.5250
" />
</g>
<g style="fill:none; 
stroke:#C83434; stroke-width:0.3000; stroke-opacity:1; 
stroke-linecap:round; stroke-linejoin:round;">
<path d="M19.0450 11.3250
L15.7750 11.3250
" />
<path d="M19.5700 11.8500
L19.0450 11.3250
" />
<path d="M21.9900 11.8500
L19.5700 11.8500
" />
<path d="M22.7300 9.6800
L22.7300 11.1100
" />
<path d="M22.7300 11.1100
L21.9900 11.8500
" />
<path d="M21.5750 8.5250
L22.7300 9.6800
" />
<path d="M19.4250 10.5750
L21.0500 10.5750
" />
<path d="M18.4000 9.5500
L19.4250 10.5750
" />
<path d="M17.0500 9.5500
L18.4000 9.5500
" />
<path d="M15.7750 7.2750
L15.7750 4.2500
" />
<path d="M15.7750 4.2500
L15.5750 4.0500
" />
<path d="M14.4000 9.0500
L14.7200 9.3700
" />
<path d="M14.7200 9.3700
L15.7750 8.3150
" />
<path d="M13.0000 9.0500
L14.4000 9.0500
" />
<path d="M15.7750 8.3150
L15.7750 7.2750
" />
<path d="M14.0400 10.0500
L14.7200 9.3700
" />
<path d="M13.0000 10.0500
L14.0400 10.0500
" />
<path d="M13.0000 9.0500
L11.5750 9.0500
" />
<path d="M11.5750 9.0500
L10.0500 10.5750
" />
<path d="M16.0000 10.0500
L17.0500 10.0500
" />
<path d="M15.6100 9.6600
L16.0000 10.0500
" />
<path d="M15.6100 9.4500
L15.6100 9.6600
" />
<path d="M17.0500 9.0500
L16.0100 9.0500
" />
<path d="M16.0100 9.0500
L15.6100 9.4500
" />
<path d="M17.0500 8.5500
L17.0500 7.5000
" />
</g>
<g style="fill:none; 
stroke:#C83434; stroke-width:0.1800; stroke-opacity:1; 
stroke-linecap:round; stroke-linejoin:round;">
<path d="M19.6050 5.5750
L19.6000 5.5700
" />
</g>
<g style="fill:none; 
stroke:#C83434; stroke-width:0.3000; stroke-opacity:1; 
stroke-linecap:round; stroke-linejoin:round;">
<path d="M21.1200 5.5750
L19.6050 5.5750
" />
</g>
<g style="fill:none; 
stroke:#C83434; stroke-width:0.1800; stroke-opacity:1; 
stroke-linecap:round; stroke-linejoin:round;">
<path d="M21.1200 8.5250
L21.5750 8.5250
" />
</g>
<g style="fill:none; 
stroke:#C83434; stroke-width:1.0000; stroke-opacity:1; 
stroke-linecap:round; stroke-linejoin:round;">
<path d="M11.0500 3.5875
L15.1125 3.5875
" />
<path d="M15.1125 3.5875
L15.5750 4.0500
" />
</g>
<g style="fill:none; 
stroke:#C83434; stroke-width:0.1800; stroke-opacity:1; 
stroke-linecap:round; stroke-linejoin:round;">
<path d="M6.0000 8.5900
L4.0500 8.5900
" />
<path d="M8.0500 6.5400
L6.0000 8.5900
" />
<path d="M8.0500 6.5125
L8.0500 6.5400
" />
<path d="M13.0000 8.5500
L10.0875 8.5500
" />
<path d="M10.0875 8.5500
L8.0500 6.5125
" />
<path d="M11.8125 7.2750
L11.0500 6.5125
" />
<path d="M14.2750 7.2750
L11.8125 7.2750
" />
</g>
<g style="fill:none; 
stroke:#C83434; stroke-width:1.0000; stroke-opacity:1; 
stroke-linecap:round; stroke-linejoin:round;">
<path d="M4.0500 3.5100
L10.9725 3.5100
" />
<path d="M10.9725 3.5100
L11.0500 3.5875
" />
<path style="fill:#C83434; fill-opacity:1.0000; stroke:none;fill-rule:evenodd;"
d="M 6.7562,4.5159
6.7755,4.5164
6.7890,4.5256
6.8047,4.5302
6.8174,4.5447
6.8333,4.5556
6.8398,4.5706
6.8505,4.5830
6.8532,4.6021
6.8608,4.6198
6.8581,4.6359
6.8604,4.6521
6.8524,4.6697
6.8492,4.6887
6.8382,4.7008
6.8314,4.7157
6.8152,4.7261
6.8022,4.7404
6.7746,4.7522
6.7726,4.7535
6.7698,4.7543
6.7624,4.7563
6.7121,4.7697
6.7121,4.7697
6.5774,4.8475
6.5774,4.8475
5.5832,5.8417
5.5219,5.8752
5.4522,5.8702
5.3962,5.8284
5.3730,5.7734
5.3668,5.7339
5.3011,5.5318
5.2046,5.3424
5.1653,5.2883
5.1653,5.2883
4.5330,5.9206
4.5159,5.8570
4.4501,5.7430
4.3570,5.6499
4.2430,5.5841
4.1794,5.5670
4.8490,4.8974
4.8732,4.8842
4.8957,4.8681
4.9067,4.8659
4.9103,4.8640
4.9303,4.8613
4.9356,4.8610
4.9424,4.8607
4.9470,4.8605
4.9494,4.8604
4.9534,4.8601
4.9602,4.8597
4.9602,4.8597
4.9662,4.8588
4.9662,4.8590
4.9728,4.8578
5.0075,4.8541
5.0537,4.8368
5.0666,4.8328
5.0997,4.8245
5.8395,4.5198
5.8867,4.5105
6.7377,4.5105
Z" /> 
<path style="fill:#C83434; fill-opacity:1.0000; stroke:none;fill-rule:evenodd;"
d="M 24.7925,0.2702
24.8383,0.3230
24.8495,0.3745
24.8495,16.7255
24.8298,16.7925
24.7770,16.8383
24.7255,16.8495
0.3745,16.8495
0.3075,16.8298
0.2617,16.7770
0.2505,16.7255
0.2505,7.7423
2.0795,7.7423
2.0795,7.7497
2.0795,9.8277
2.1052,9.9235
2.1197,9.9779
2.1197,9.9779
2.1975,10.1126
2.1975,10.1126
2.3282,10.2433
2.3584,10.2926
2.7288,11.4313
2.7313,11.4416
2.7316,11.4415
2.7328,11.4462
2.7984,11.6484
2.8950,11.8378
3.0199,12.0098
3.1702,12.1601
3.3422,12.2851
3.3509,12.2895
3.4017,12.3375
3.4185,12.4053
3.3960,12.4714
3.3509,12.5105
3.3422,12.5149
3.1702,12.6399
3.0199,12.7902
2.8950,12.9622
2.7984,13.1516
2.7328,13.3538
2.6995,13.5637
2.6995,13.7763
2.7328,13.9862
2.7922,14.1691
2.7984,14.1884
2.8950,14.3778
3.0199,14.5498
3.1702,14.7001
3.3422,14.8250
3.3422,14.8250
3.3422,14.8251
3.5316,14.9216
3.7338,14.9872
3.9437,15.0205
3.9437,15.0205
4.1563,15.0205
4.1563,15.0205
4.3662,14.9872
4.5684,14.9216
4.7578,14.8251
4.7798,14.8091
4.9298,14.7001
4.9298,14.7001
4.9298,14.7001
5.0801,14.5498
5.0801,14.5498
5.0801,14.5498
5.2050,14.3778
5.2050,14.3778
5.2051,14.3778
5.3016,14.1884
5.3672,13.9862
5.3809,13.9000
8.6500,13.9000
8.6605,14.0027
8.7156,14.1691
8.7156,14.1691
8.8077,14.3183
8.9317,14.4423
9.0809,14.5344
9.0809,14.5344
9.2473,14.5895
9.2473,14.5895
9.3500,14.6000
9.8000,14.6000
10.3000,14.6000
10.7500,14.6000
10.7500,14.6000
10.8527,14.5895
11.0191,14.5344
11.0191,14.5344
11.1683,14.4423
11.2923,14.3183
11.3844,14.1691
11.3844,14.1691
11.4395,14.0027
11.4395,14.0027
11.4500,13.9000
19.6500,13.9000
19.6605,14.0027
19.7156,14.1691
19.7156,14.1691
19.8077,14.3183
19.9317,14.4423
20.0809,14.5344
20.0809,14.5344
20.2473,14.5895
20.2473,14.5895
20.3500,14.6000
20.8000,14.6000
21.3000,14.6000
21.7500,14.6000
21.7500,14.6000
21.8527,14.5895
22.0191,14.5344
22.0191,14.5344
22.1683,14.4423
22.2923,14.3183
22.3844,14.1691
22.3844,14.1691
22.4395,14.0027
22.4395,14.0027
22.4500,13.9000
22.4500,13.9000
22.4500,13.7750
21.3000,13.7750
21.3000,14.6000
20.8000,14.6000
20.8000,14.6000
20.8000,13.7750
19.6500,13.7750
19.6500,13.9000
11.4500,13.9000
11.4500,13.9000
11.4500,13.7750
10.3000,13.7750
10.3000,14.6000
9.8000,14.6000
9.8000,14.6000
9.8000,13.7750
8.6500,13.7750
8.6500,13.9000
5.3809,13.9000
5.4005,13.7763
5.4005,13.5637
5.3672,13.3538
5.3016,13.1516
5.3008,13.1500
8.6500,13.1500
8.6500,13.2750
9.8000,13.2750
10.3000,13.2750
11.4500,13.2750
11.4500,13.1500
11.4500,13.1500
11.4395,13.0473
11.3844,12.8809
11.3844,12.8809
11.2923,12.7317
11.1683,12.6077
11.0191,12.5156
11.0191,12.5156
10.8527,12.4605
10.8527,12.4605
10.7500,12.4500
10.3000,12.4500
10.3000,13.2750
9.8000,13.2750
9.8000,12.4500
9.3500,12.4500
9.3500,12.4500
9.2473,12.4605
9.0809,12.5156
9.0809,12.5156
8.9317,12.6077
8.8077,12.7317
8.7156,12.8809
8.7156,12.8809
8.6605,13.0473
8.6605,13.0473
8.6500,13.1500
5.3008,13.1500
5.2051,12.9622
5.2050,12.9622
5.2050,12.9622
5.0801,12.7902
4.9298,12.6399
4.7578,12.5150
4.7571,12.5146
4.7491,12.5105
4.6983,12.4625
4.6815,12.3947
4.7040,12.3286
4.7491,12.2895
4.7578,12.2851
4.7798,12.2691
4.9298,12.1601
4.9298,12.1601
4.9298,12.1601
5.0801,12.0098
5.0801,12.0098
5.0801,12.0098
5.2050,11.8378
5.2050,11.8378
5.2051,11.8378
5.3016,11.6484
5.3672,11.4462
5.4005,11.2363
5.4005,11.0237
5.3672,10.8138
5.3016,10.6116
5.2051,10.4222
5.2050,10.4222
5.2050,10.4222
5.0801,10.2502
4.9298,10.0999
4.7578,9.9749
4.7491,9.9705
4.7415,9.9633
4.7317,9.9598
4.7165,9.9398
4.6983,9.9225
4.6958,9.9124
4.6895,9.9041
4.6875,9.8791
4.6815,9.8547
4.6848,9.8448
4.6840,9.8344
4.6959,9.8123
4.7040,9.7886
4.7130,9.7804
4.7171,9.7729
4.7406,9.7557
4.7452,9.7516
4.7471,9.7505
4.7578,9.7451
4.7606,9.7430
4.7672,9.7393
4.7681,9.7392
4.7711,9.7373
5.8382,9.1940
5.8945,9.1805
6.0777,9.1805
6.0777,9.1805
6.1962,9.1488
6.2279,9.1403
6.3626,9.0625
7.4382,7.9869
7.4782,7.9601
8.0095,7.7386
8.0790,7.7310
8.1041,7.7383
8.6500,7.9613
8.6908,7.9884
9.7249,9.0225
9.8596,9.1003
9.8900,9.1084
9.9691,9.1296
10.0288,9.1660
10.0288,9.1660
10.0424,9.1940
10.0590,9.2282
10.0593,9.2288
10.0510,9.2982
10.0065,9.3521
10.0065,9.3521
9.9889,9.3620
9.7149,9.4881
9.6630,9.4995
9.3500,9.4995
9.3500,9.4995
9.2472,9.5100
9.2472,9.5100
9.0807,9.5652
9.0807,9.5652
8.9313,9.6573
8.8073,9.7813
8.7152,9.9307
8.7152,9.9307
8.6995,9.9779
8.6600,10.0972
8.6600,10.0972
8.6600,10.0972
8.6495,10.2000
8.6495,10.9500
8.6495,10.9500
8.6600,11.0528
8.6600,11.0528
8.7152,11.2193
8.7152,11.2193
8.7280,11.2401
8.8073,11.3687
8.9313,11.4927
9.0807,11.5848
9.2472,11.6400
9.3500,11.6505
10.7500,11.6505
10.8528,11.6400
10.9593,11.6047
10.9671,11.6024
10.9974,11.5945
11.3621,11.4415
11.6156,11.3352
11.6636,11.3255
11.6789,11.3255
11.7765,11.3061
11.8239,11.2967
11.9605,11.2401
12.0834,11.1580
12.1880,11.0534
12.2145,11.0137
12.2242,11.0010
12.2434,10.9790
12.3874,10.7570
12.4404,10.7115
12.4914,10.7005
12.9359,10.7005
13.5005,10.7005
13.5675,10.7202
13.6133,10.7730
13.6245,10.8245
13.6245,12.2141
13.6245,12.2141
13.6245,12.2141
13.6495,12.3397
13.6495,12.3397
13.6985,12.4581
13.6985,12.4581
13.7697,12.5647
13.7697,12.5647
13.8603,12.6553
13.8603,12.6553
13.9669,12.7265
13.9669,12.7265
13.9669,12.7265
14.0853,12.7755
14.0853,12.7755
14.0853,12.7755
14.2109,12.8005
14.2109,12.8005
14.3391,12.8005
14.4236,12.7837
14.4647,12.7755
14.4775,12.7702
14.5470,12.7627
14.5724,12.7702
14.5853,12.7755
14.5853,12.7755
14.5853,12.7755
14.7109,12.8005
14.7109,12.8005
14.8391,12.8005
14.9236,12.7837
14.9647,12.7755
14.9775,12.7702
15.0470,12.7627
15.0724,12.7702
15.0853,12.7755
15.0853,12.7755
15.0853,12.7755
15.2109,12.8005
15.2109,12.8005
15.3391,12.8005
15.4236,12.7837
15.4647,12.7755
15.4775,12.7702
15.5470,12.7627
15.5724,12.7702
15.5853,12.7755
15.5853,12.7755
15.5853,12.7755
15.7109,12.8005
15.7109,12.8005
15.8391,12.8005
15.9236,12.7837
15.9647,12.7755
16.0831,12.7265
16.1897,12.6553
16.2803,12.5647
16.3515,12.4581
16.4005,12.3397
16.4255,12.2141
16.4255,12.0995
16.4452,12.0325
16.4980,11.9867
16.5495,11.9755
18.7242,11.9755
18.7912,11.9952
18.8119,12.0118
19.1553,12.3553
19.1553,12.3553
19.2499,12.4184
19.2499,12.4184
19.2499,12.4184
19.2619,12.4265
19.2619,12.4265
19.2619,12.4265
19.2887,12.4376
19.3803,12.4755
19.3803,12.4755
19.3803,12.4755
19.5059,12.5005
19.7395,12.5005
19.8065,12.5202
19.8523,12.5730
19.8622,12.6421
19.8332,12.7057
19.8272,12.7122
19.8077,12.7317
19.7156,12.8809
19.7156,12.8809
19.6605,13.0473
19.6605,13.0473
19.6500,13.1500
19.6500,13.2750
22.4500,13.2750
22.4500,13.1500
22.4500,13.1500
22.4395,13.0473
22.3844,12.8809
22.3844,12.8809
22.2923,12.7317
22.2094,12.6488
22.1760,12.5875
22.1809,12.5178
22.2228,12.4618
22.2497,12.4465
22.2981,12.4265
22.2981,12.4265
22.2981,12.4265
22.3101,12.4184
22.4047,12.3553
23.2353,11.5247
23.3065,11.4181
23.3555,11.2997
23.3607,11.2735
23.3805,11.1741
23.3805,9.6159
23.3805,9.6159
23.3555,9.4903
23.3555,9.4903
23.3322,9.4341
23.3065,9.3719
23.2709,9.3187
23.2353,9.2653
23.2353,9.2653
22.9351,8.9652
22.9162,8.9408
22.9065,8.9245
22.8137,8.7682
22.5379,8.3038
22.5205,8.2405
22.5205,8.1500
22.5205,8.1500
22.5100,8.0472
22.5100,8.0472
22.4905,7.9884
22.4548,7.8807
22.3627,7.7313
22.2387,7.6073
22.0893,7.5152
21.9228,7.4600
21.9228,7.4600
21.8200,7.4495
20.4200,7.4495
20.4200,7.4495
20.3172,7.4600
20.3172,7.4600
20.1507,7.5152
20.1507,7.5152
20.0013,7.6073
19.8773,7.7313
19.7852,7.8807
19.7852,7.8807
19.7656,7.9398
19.7300,8.0472
19.7300,8.0472
19.7300,8.0472
19.7195,8.1500
19.7195,8.9000
19.7195,8.9000
19.7300,9.0028
19.7300,9.0028
19.7852,9.1693
19.7852,9.1693
19.8201,9.2259
19.8647,9.2982
19.8773,9.3187
19.9921,9.4335
20.0256,9.4948
20.0206,9.5645
19.9787,9.6204
19.9647,9.6295
19.6834,9.7861
19.6152,9.8015
19.5496,9.7776
19.5354,9.7655
18.8147,9.0447
18.8147,9.0447
18.7519,9.0028
18.7081,8.9735
18.5897,8.9245
18.5897,8.9245
18.5897,8.9245
18.5859,8.9237
18.5841,8.9228
18.5839,8.9227
18.5839,8.9227
18.5789,8.9201
18.5709,8.9198
18.5484,8.9041
18.5240,8.8913
18.5186,8.8834
18.5136,8.8799
18.4955,8.8496
18.4949,8.8481
18.4875,8.7786
18.4949,8.7532
18.5005,8.7397
18.5255,8.6141
18.5255,8.4859
18.5255,8.4859
18.5005,8.3603
18.5005,8.3603
18.5005,8.3603
18.4515,8.2419
18.4515,8.2419
18.4515,8.2419
18.3803,8.1353
18.3803,8.1353
18.2897,8.0447
18.2897,8.0447
18.1831,7.9735
18.1831,7.9735
18.0647,7.9245
18.0647,7.9245
17.9391,7.8995
17.9391,7.8995
17.8905,7.8995
17.8715,7.8939
17.8517,7.8933
17.8387,7.8843
17.8235,7.8798
17.8105,7.8649
17.7942,7.8536
17.7881,7.8390
17.7777,7.8270
17.7749,7.8074
17.7673,7.7892
17.7685,7.7633
17.7678,7.7579
17.7684,7.7539
17.7688,7.7518
17.7871,7.6658
17.7879,7.6620
17.7879,7.6619
17.7961,7.6073
17.7957,7.5997
17.7981,7.5862
17.7983,7.5858
17.7986,7.5836
17.8005,7.5739
17.8005,7.4261
17.7717,7.2811
17.7717,7.2811
17.7717,7.2811
17.7288,7.1775
17.7151,7.1445
17.7151,7.1445
17.6330,7.0216
17.6329,7.0216
17.5284,6.9171
17.5284,6.9170
17.4055,6.8349
17.4055,6.8349
17.2689,6.7783
17.2689,6.7783
17.1239,6.7495
17.1239,6.7495
16.9761,6.7495
16.9761,6.7495
16.8311,6.7783
16.8311,6.7783
16.6945,6.8349
16.6945,6.8349
16.6184,6.8858
16.5517,6.9067
16.4843,6.8882
16.4376,6.8362
16.4255,6.7827
16.4255,5.6299
16.4302,5.5962
16.4336,5.5841
16.6159,4.9386
16.6238,4.9067
16.6241,4.9053
16.6241,4.9053
16.6246,4.9027
16.6248,4.9027
16.6286,4.8872
16.6400,4.8528
16.6505,4.7500
16.6505,4.7500
17.4500,4.7500
17.4605,4.8527
17.5156,5.0191
17.5156,5.0191
17.6077,5.1683
17.7317,5.2923
17.8809,5.3844
17.8809,5.3844
18.0473,5.4395
18.0473,5.4395
18.1500,5.4500
18.2750,5.4500
18.7750,5.4500
18.8113,5.4863
18.8090,5.4887
18.8383,5.5225
18.8495,5.5740
18.8495,5.6539
18.8495,5.6539
18.8495,5.6539
18.8783,5.7989
18.8783,5.7989
18.9349,5.9355
18.9349,5.9355
19.0170,6.0584
19.0171,6.0584
19.1216,6.1629
19.1216,6.1630
19.2445,6.2451
19.2445,6.2451
19.3811,6.3017
19.3811,6.3017
19.3811,6.3017
19.3811,6.3017
19.5261,6.3305
19.6613,6.3305
19.7216,6.3462
20.1219,6.5690
20.1330,6.5739
20.1507,6.5848
20.1781,6.5939
20.2055,6.6060
20.2095,6.6074
20.2109,6.6079
20.2233,6.6102
20.2400,6.6144
20.3172,6.6400
20.4200,6.6505
21.8200,6.6505
21.9228,6.6400
22.0893,6.5848
22.2387,6.4927
22.3627,6.3687
22.4548,6.2193
22.5100,6.0528
22.5205,5.9500
22.5205,5.2000
22.5100,5.0972
22.4548,4.9307
22.3627,4.7813
22.2387,4.6573
22.1212,4.5848
22.0893,4.5652
22.0893,4.5652
22.0879,4.5647
21.9228,4.5100
21.9228,4.5100
21.8200,4.4995
20.4200,4.4995
20.4200,4.4995
20.3172,4.5100
20.2686,4.5261
20.2686,4.5261
20.2596,4.5291
20.2563,4.5297
20.2455,4.5337
20.2429,4.5346
20.2429,4.5346
20.1507,4.5652
20.1400,4.5718
20.1257,4.5788
20.1259,4.5792
20.1219,4.5810
19.7843,4.7689
19.7162,4.7843
19.6505,4.7604
19.6082,4.7048
19.6000,4.6606
19.6000,4.3000
18.7750,4.3000
18.7750,5.4500
18.2750,5.4500
18.2750,5.4500
18.2750,4.3000
17.4500,4.3000
17.4500,4.7500
16.6505,4.7500
16.6505,3.8000
16.6505,3.3500
17.4500,3.3500
17.4500,3.8000
18.2750,3.8000
18.7750,3.8000
19.6000,3.8000
19.6000,3.3500
19.6000,3.3500
19.5895,3.2473
19.5344,3.0809
19.5344,3.0809
19.4423,2.9317
19.3183,2.8077
19.1691,2.7156
19.1691,2.7156
19.0027,2.6605
19.0027,2.6605
18.9000,2.6500
18.7750,2.6500
18.7750,3.8000
18.2750,3.8000
18.2750,2.6500
18.1500,2.6500
18.1500,2.6500
18.0473,2.6605
17.8809,2.7156
17.8809,2.7156
17.7317,2.8077
17.6077,2.9317
17.5156,3.0809
17.5156,3.0809
17.4605,3.2473
17.4605,3.2473
17.4500,3.3500
16.6505,3.3500
16.6505,3.3500
16.6505,3.3500
16.6400,3.2472
16.6400,3.2472
16.5848,3.0807
16.4927,2.9313
16.3687,2.8073
16.2193,2.7152
16.0528,2.6600
16.0528,2.6600
15.9500,2.6495
15.9500,2.6495
15.4871,2.6495
15.4789,2.6479
15.4739,2.6488
15.4397,2.6401
15.4394,2.6400
15.4393,2.6399
15.4043,2.6254
15.4043,2.6254
15.3077,2.6062
15.2110,2.5870
15.2110,2.5870
12.5486,2.5870
12.5216,2.5840
12.5155,2.5827
11.7187,2.5214
11.7115,2.5209
11.7111,2.5208
11.7111,2.5208
11.6599,2.5206
11.6526,2.5206
11.6526,2.5206
11.6526,2.5206
11.6450,2.5221
11.6208,2.5245
11.1587,2.5245
11.1345,2.5221
11.1281,2.5208
11.1281,2.5208
11.1281,2.5208
11.1281,2.5208
11.1281,2.5208
11.0710,2.5095
11.0710,2.5095
10.1003,2.5095
10.0990,2.5095
9.6294,2.5046
9.6294,2.5046
9.5701,2.5075
9.5661,2.5081
9.5477,2.5095
5.8867,2.5095
5.8395,2.5002
5.0997,2.1955
5.0482,2.1800
5.0482,2.1800
5.0330,2.1754
5.0075,2.1659
4.9479,2.1595
4.8506,2.1595
4.8491,2.1594
4.8489,2.1595
4.8466,2.1595
4.8450,2.1593
4.8420,2.1595
3.1521,2.1595
3.1521,2.1595
3.0925,2.1659
2.9577,2.2162
2.9577,2.2162
2.8425,2.3025
2.8425,2.3025
2.7562,2.4177
2.7562,2.4177
2.7059,2.5525
2.6995,2.6121
2.6995,2.6121
2.6995,4.4079
2.6995,4.4079
2.7059,4.4675
2.7562,4.6023
2.7562,4.6023
2.8425,4.7175
2.8425,4.7175
2.9577,4.8038
2.9577,4.8038
3.0026,4.8206
3.0925,4.8541
3.1521,4.8605
3.1627,4.8605
3.2297,4.8802
3.2504,4.8968
3.9206,5.5670
3.8570,5.5841
3.7430,5.6499
3.6499,5.7430
3.5841,5.8570
3.5670,5.9206
2.9347,5.2883
2.9347,5.2883
2.8954,5.3424
2.7989,5.5318
2.7332,5.7339
2.7332,5.7339
2.7000,5.9438
2.7000,6.1562
2.7332,6.3661
2.7332,6.3661
2.7989,6.5682
2.8574,6.6830
2.8703,6.7516
2.8440,6.8164
2.8138,6.8424
2.8139,6.8425
2.8118,6.8441
2.8089,6.8466
2.8078,6.8472
2.8074,6.8475
2.1975,7.4574
2.1975,7.4574
2.1197,7.5921
2.1180,7.5984
2.1180,7.5984
2.1179,7.5991
2.0795,7.7423
0.2505,7.7423
0.2505,0.3745
0.2702,0.3075
0.3230,0.2617
0.3745,0.2505
24.7255,0.2505
Z" /> 
<path style="fill:#C83434; fill-opacity:1.0000; stroke:none;fill-rule:evenodd;"
d="M 2.9231,9.8758
2.7958,10.0031
3.2163,11.2958
4.0507,11.1307
4.2158,10.2963
Z" /> 
<path style="fill:#C83434; fill-opacity:1.0000; stroke:none;fill-rule:evenodd;"
d="M 10.1534,5.4886
10.0261,5.6159
10.1750,6.4330
11.0507,6.5132
11.2830,5.9500
Z" /> 
<path style="fill:#C83434; fill-opacity:1.0000; stroke:none;fill-rule:evenodd;"
d="M 14.5841,5.8162
14.7962,5.6041
14.5479,5.2211
14.3393,5.3593
14.2011,5.5679
Z" /> 
<path style="fill:#C83434; fill-opacity:1.0000; stroke:none;fill-rule:evenodd;"
d="M 11.5250,10.8250
11.5250,10.3250
10.7957,10.0190
10.0490,10.5750
10.7957,11.1310
Z" /> 
<path style="fill:#C83434; fill-opacity:1.0000; stroke:none;fill-rule:evenodd;"
d="M 22.2994,9.4615
22.5115,9.2494
22.0200,8.4217
21.1193,8.5243
20.9508,9.1000
Z" /> 
<path style="fill:#C83434; fill-opacity:1.0000; stroke:none;fill-rule:evenodd;"
d="M 19.5750,10.4250
19.5750,10.7250
20.3043,11.1310
21.0510,10.5750
20.3043,10.0190
Z" /> 
<path style="fill:#C83434; fill-opacity:1.0000; stroke:none;fill-rule:evenodd;"
d="M 15.6250,5.5250
15.9250,5.5250
16.1310,4.7957
15.5750,4.0490
15.1103,4.9015
Z" /> 
<path style="fill:#C83434; fill-opacity:1.0000; stroke:none;fill-rule:evenodd;"
d="M 11.1377,9.6995
10.9255,9.4873
9.8118,10.0000
10.0493,10.5757
10.9500,10.4882
Z" /> 
<path style="fill:#C83434; fill-opacity:1.0000; stroke:none;fill-rule:evenodd;"
d="M 16.9000,7.9952
17.2000,7.9952
17.2952,7.5488
17.0500,7.4990
16.8048,7.5488
Z" /> 
<path style="fill:#C83434; fill-opacity:1.0000; stroke:none;fill-rule:evenodd;"
d="M 19.6450,5.4250
19.6450,5.7250
20.3743,6.1310
21.1210,5.5750
20.3743,5.0190
Z" /> 
<path style="fill:#C83434; fill-opacity:1.0000; stroke:none;fill-rule:evenodd;"
d="M 20.0952,5.7250
20.0952,5.4250
19.6488,5.3348
19.5990,5.5800
19.6488,5.8252
Z" /> 
<path style="fill:#C83434; fill-opacity:1.0000; stroke:none;fill-rule:evenodd;"
d="M 14.4250,3.0875
14.4250,4.0875
15.0000,4.4382
15.5760,4.0500
15.0706,3.2272
Z" /> 
<path style="fill:#C83434; fill-opacity:1.0000; stroke:none;fill-rule:evenodd;"
d="M 12.4875,4.0875
12.4875,3.0875
11.6750,3.0250
11.0490,3.5875
11.6750,4.1500
Z" /> 
<path style="fill:#C83434; fill-opacity:1.0000; stroke:none;fill-rule:evenodd;"
d="M 5.7337,8.6800
5.7337,8.5000
4.5222,7.8833
4.0490,8.5900
4.5222,9.2967
Z" /> 
<path style="fill:#C83434; fill-opacity:1.0000; stroke:none;fill-rule:evenodd;"
d="M 7.0536,7.4091
7.1809,7.5364
8.2878,7.0750
8.0507,6.5118
7.1750,6.6060
Z" /> 
<path style="fill:#C83434; fill-opacity:1.0000; stroke:none;fill-rule:evenodd;"
d="M 11.8779,8.4600
11.8779,8.6400
12.1457,8.6971
13.0010,8.5500
12.1457,8.4029
Z" /> 
<path style="fill:#C83434; fill-opacity:1.0000; stroke:none;fill-rule:evenodd;"
d="M 8.9466,7.5364
9.0739,7.4091
8.9250,6.5920
8.0493,6.5118
7.8170,7.0750
Z" /> 
<path style="fill:#C83434; fill-opacity:1.0000; stroke:none;fill-rule:evenodd;"
d="M 12.0922,7.3650
12.0922,7.1850
11.9250,6.4561
11.0490,6.5125
10.8653,7.0750
Z" /> 
<path style="fill:#C83434; fill-opacity:1.0000; stroke:none;fill-rule:evenodd;"
d="M 13.9750,7.1850
13.9750,7.3650
14.1250,7.4250
14.2760,7.2750
14.1250,7.1250
Z" /> 
<path style="fill:#C83434; fill-opacity:1.0000; stroke:none;fill-rule:evenodd;"
d="M 5.7500,4.0100
5.7500,3.0100
4.9000,2.6600
4.0490,3.5100
4.9000,4.3600
Z" /> 
<path style="fill:#C83434; fill-opacity:1.0000; stroke:none;fill-rule:evenodd;"
d="M 9.6125,3.0100
9.6125,4.0100
10.2983,4.1103
11.0510,3.5875
11.0661,3.0250
Z" /> 
<path style="fill:#C83434; fill-opacity:1.0000; stroke:none;fill-rule:evenodd;"
d="M 12.0612,10.3309
11.8491,10.1188
11.4661,10.3671
11.6043,10.5757
11.8129,10.7139
Z" /> 
<path style="fill:#C83434; fill-opacity:1.0000; stroke:none;fill-rule:evenodd;"
d="M 18.3038,8.7291
18.5159,8.9412
18.8989,8.6929
18.7607,8.4843
18.5521,8.3461
Z" /> 
</g>
<g style="fill:none; 
stroke:#D864FF; stroke-width:0.3000; stroke-opacity:1; 
stroke-linecap:round; stroke-linejoin:round;">
<path d="M12.1750 8.5500
L13.8250 8.5500
" />
<path d="M12.1750 9.0500
L13.8250 9.0500
" />
<path d="M12.1750 9.5500
L13.8250 9.5500
" />
<path d="M12.1750 10.0500
L13.8250 10.0500
" />
<path d="M14.2750 10.5000
L14.2750 12.1500
" />
<path d="M14.7750 10.5000
L14.7750 12.1500
" />
<path d="M15.2750 10.5000
L15.2750 12.1500
" />
<path d="M15.7750 10.5000
L15.7750 12.1500
" />
<path d="M16.2250 10.0500
L17.8750 10.0500
" />
<path d="M16.2250 9.5500
L17.8750 9.5500
" />
<path d="M16.2250 9.0500
L17.8750 9.0500
" />
<path d="M16.2250 8.5500
L17.8750 8.5500
" />
<path d="M15.7750 6.4500
L15.7750 8.1000
" />
<path d="M15.2750 6.4500
L15.2750 8.1000
" />
<path d="M14.7750 6.4500
L14.7750 8.1000
" />
<path d="M14.2750 6.4500
L14.2750 8.1000
" />
<path style="fill:#D864FF; fill-opacity:0.4000; stroke:none;fill-rule:evenodd;"
d="M 8.6750,3.0250
8.7707,3.0440
8.8518,3.0982
8.9060,3.1793
8.9250,3.2750
8.9250,3.9000
8.9060,3.9957
8.8518,4.0768
8.7707,4.1310
8.6750,4.1500
7.4250,4.1500
7.3293,4.1310
7.2482,4.0768
7.1940,3.9957
7.1750,3.9000
7.1750,3.2750
7.1940,3.1793
7.2482,3.0982
7.3293,3.0440
7.4250,3.0250
Z" /> 
<path style="fill:#D864FF; fill-opacity:0.4000; stroke:none;fill-rule:evenodd;"
d="M 8.6750,5.9500
8.7707,5.9690
8.8518,6.0232
8.9060,6.1043
8.9250,6.2000
8.9250,6.8250
8.9060,6.9207
8.8518,7.0018
8.7707,7.0560
8.6750,7.0750
7.4250,7.0750
7.3293,7.0560
7.2482,7.0018
7.1940,6.9207
7.1750,6.8250
7.1750,6.2000
7.1940,6.1043
7.2482,6.0232
7.3293,5.9690
7.4250,5.9500
Z" /> 
<path style="fill:#D864FF; fill-opacity:0.4000; stroke:none;fill-rule:evenodd;"
d="M 11.6750,3.0250
11.7707,3.0440
11.8518,3.0982
11.9060,3.1793
11.9250,3.2750
11.9250,3.9000
11.9060,3.9957
11.8518,4.0768
11.7707,4.1310
11.6750,4.1500
10.4250,4.1500
10.3293,4.1310
10.2482,4.0768
10.1940,3.9957
10.1750,3.9000
10.1750,3.2750
10.1940,3.1793
10.2482,3.0982
10.3293,3.0440
10.4250,3.0250
Z" /> 
<path style="fill:#D864FF; fill-opacity:0.4000; stroke:none;fill-rule:evenodd;"
d="M 11.6750,5.9500
11.7707,5.9690
11.8518,6.0232
11.9060,6.1043
11.9250,6.2000
11.9250,6.8250
11.9060,6.9207
11.8518,7.0018
11.7707,7.0560
11.6750,7.0750
10.4250,7.0750
10.3293,7.0560
10.2482,7.0018
10.1940,6.9207
10.1750,6.8250
10.1750,6.2000
10.1940,6.1043
10.2482,6.0232
10.3293,5.9690
10.4250,5.9500
Z" /> 
<path style="fill:#D864FF; fill-opacity:0.4000; stroke:none;fill-rule:evenodd;"
d="M 4.9000,2.6600
4.9000,4.3600
3.2000,4.3600
3.2000,2.6600
Z" /> 
</g>
<g style="fill:#D864FF; fill-opacity:0.4000; stroke:none;">
<circle cx="4.0500" cy="6.0500" r="0.8500" /> 
</g>
<g style="fill:#D864FF; fill-opacity:0.4000; stroke:none;">
<circle cx="4.0500" cy="8.5900" r="0.8500" /> 
</g>
<g style="fill:#D864FF; fill-opacity:0.4000; stroke:none;">
<circle cx="4.0500" cy="11.1300" r="0.8500" /> 
</g>
<g style="fill:#D864FF; fill-opacity:0.4000; stroke:none;">
<circle cx="4.0500" cy="13.6700" r="0.8500" /> 
<path style="fill:#D864FF; fill-opacity:0.4000; stroke:none;fill-rule:evenodd;"
d="M 21.7000,10.0000
21.7957,10.0190
21.8768,10.0732
21.9310,10.1543
21.9500,10.2500
21.9500,10.9000
21.9310,10.9957
21.8768,11.0768
21.7957,11.1310
21.7000,11.1500
20.4000,11.1500
20.3043,11.1310
20.2232,11.0768
20.1690,10.9957
20.1500,10.9000
20.1500,10.2500
20.1690,10.1543
20.2232,10.0732
20.3043,10.0190
20.4000,10.0000
Z" /> 
<path style="fill:#D864FF; fill-opacity:0.4000; stroke:none;fill-rule:evenodd;"
d="M 21.7000,12.9500
21.7957,12.9690
21.8768,13.0232
21.9310,13.1043
21.9500,13.2000
21.9500,13.8500
21.9310,13.9457
21.8768,14.0268
21.7957,14.0810
21.7000,14.1000
20.4000,14.1000
20.3043,14.0810
20.2232,14.0268
20.1690,13.9457
20.1500,13.8500
20.1500,13.2000
20.1690,13.1043
20.2232,13.0232
20.3043,12.9690
20.4000,12.9500
Z" /> 
<path style="fill:#D864FF; fill-opacity:0.4000; stroke:none;fill-rule:evenodd;"
d="M 20.4700,9.1000
20.3743,9.0810
20.2932,9.0268
20.2390,8.9457
20.2200,8.8500
20.2200,8.2000
20.2390,8.1043
20.2932,8.0232
20.3743,7.9690
20.4700,7.9500
21.7700,7.9500
21.8657,7.9690
21.9468,8.0232
22.0010,8.1043
22.0200,8.2000
22.0200,8.8500
22.0010,8.9457
21.9468,9.0268
21.8657,9.0810
21.7700,9.1000
Z" /> 
<path style="fill:#D864FF; fill-opacity:0.4000; stroke:none;fill-rule:evenodd;"
d="M 20.4700,6.1500
20.3743,6.1310
20.2932,6.0768
20.2390,5.9957
20.2200,5.9000
20.2200,5.2500
20.2390,5.1543
20.2932,5.0732
20.3743,5.0190
20.4700,5.0000
21.7700,5.0000
21.8657,5.0190
21.9468,5.0732
22.0010,5.1543
22.0200,5.2500
22.0200,5.9000
22.0010,5.9957
21.9468,6.0768
21.8657,6.1310
21.7700,6.1500
Z" /> 
<path style="fill:#D864FF; fill-opacity:0.4000; stroke:none;fill-rule:evenodd;"
d="M 10.7000,10.0000
10.7957,10.0190
10.8768,10.0732
10.9310,10.1543
10.9500,10.2500
10.9500,10.9000
10.9310,10.9957
10.8768,11.0768
10.7957,11.1310
10.7000,11.1500
9.4000,11.1500
9.3043,11.1310
9.2232,11.0768
9.1690,10.9957
9.1500,10.9000
9.1500,10.2500
9.1690,10.1543
9.2232,10.0732
9.3043,10.0190
9.4000,10.0000
Z" /> 
<path style="fill:#D864FF; fill-opacity:0.4000; stroke:none;fill-rule:evenodd;"
d="M 10.7000,12.9500
10.7957,12.9690
10.8768,13.0232
10.9310,13.1043
10.9500,13.2000
10.9500,13.8500
10.9310,13.9457
10.8768,14.0268
10.7957,14.0810
10.7000,14.1000
9.4000,14.1000
9.3043,14.0810
9.2232,14.0268
9.1690,13.9457
9.1500,13.8500
9.1500,13.2000
9.1690,13.1043
9.2232,13.0232
9.3043,12.9690
9.4000,12.9500
Z" /> 
<path style="fill:#D864FF; fill-opacity:0.4000; stroke:none;fill-rule:evenodd;"
d="M 15.0000,3.4000
15.0190,3.3043
15.0732,3.2232
15.1543,3.1690
15.2500,3.1500
15.9000,3.1500
15.9957,3.1690
16.0768,3.2232
16.1310,3.3043
16.1500,3.4000
16.1500,4.7000
16.1310,4.7957
16.0768,4.8768
15.9957,4.9310
15.9000,4.9500
15.2500,4.9500
15.1543,4.9310
15.0732,4.8768
15.0190,4.7957
15.0000,4.7000
Z" /> 
<path style="fill:#D864FF; fill-opacity:0.4000; stroke:none;fill-rule:evenodd;"
d="M 17.9500,3.4000
17.9690,3.3043
18.0232,3.2232
18.1043,3.1690
18.2000,3.1500
18.8500,3.1500
18.9457,3.1690
19.0268,3.2232
19.0810,3.3043
19.1000,3.4000
19.1000,4.7000
19.0810,4.7957
19.0268,4.8768
18.9457,4.9310
18.8500,4.9500
18.2000,4.9500
18.1043,4.9310
18.0232,4.8768
17.9690,4.7957
17.9500,4.7000
Z" /> 
</g>
<g style="fill:none; 
stroke:#B4A09A; stroke-width:0.3000; stroke-opacity:1; 
stroke-linecap:round; stroke-linejoin:round;">
<path d="M12.1750 8.5500
L13.8250 8.5500
" />
<path d="M12.1750 9.0500
L13.8250 9.0500
" />
<path d="M12.1750 9.5500
L13.8250 9.5500
" />
<path d="M12.1750 10.0500
L13.8250 10.0500
" />
<path d="M14.2750 10.5000
L14.2750 12.1500
" />
<path d="M14.7750 10.5000
L14.7750 12.1500
" />
<path d="M15.2750 10.5000
L15.2750 12.1500
" />
<path d="M15.7750 10.5000
L15.7750 12.1500
" />
<path d="M16.2250 10.0500
L17.8750 10.0500
" />
<path d="M16.2250 9.5500
L17.8750 9.5500
" />
<path d="M16.2250 9.0500
L17.8750 9.0500
" />
<path d="M16.2250 8.5500
L17.8750 8.5500
" />
<path d="M15.7750 6.4500
L15.7750 8.1000
" />
<path d="M15.2750 6.4500
L15.2750 8.1000
" />
<path d="M14.7750 6.4500
L14.7750 8.1000
" />
<path d="M14.2750 6.4500
L14.2750 8.1000
" />
<path style="fill:#B4A09A; fill-opacity:0.9000; stroke:none;fill-rule:evenodd;"
d="M 8.6750,3.0250
8.7707,3.0440
8.8518,3.0982
8.9060,3.1793
8.9250,3.2750
8.9250,3.9000
8.9060,3.9957
8.8518,4.0768
8.7707,4.1310
8.6750,4.1500
7.4250,4.1500
7.3293,4.1310
7.2482,4.0768
7.1940,3.9957
7.1750,3.9000
7.1750,3.2750
7.1940,3.1793
7.2482,3.0982
7.3293,3.0440
7.4250,3.0250
Z" /> 
<path style="fill:#B4A09A; fill-opacity:0.9000; stroke:none;fill-rule:evenodd;"
d="M 8.6750,5.9500
8.7707,5.9690
8.8518,6.0232
8.9060,6.1043
8.9250,6.2000
8.9250,6.8250
8.9060,6.9207
8.8518,7.0018
8.7707,7.0560
8.6750,7.0750
7.4250,7.0750
7.3293,7.0560
7.2482,7.0018
7.1940,6.9207
7.1750,6.8250
7.1750,6.2000
7.1940,6.1043
7.2482,6.0232
7.3293,5.9690
7.4250,5.9500
Z" /> 
<path style="fill:#B4A09A; fill-opacity:0.9000; stroke:none;fill-rule:evenodd;"
d="M 11.6750,3.0250
11.7707,3.0440
11.8518,3.0982
11.9060,3.1793
11.9250,3.2750
11.9250,3.9000
11.9060,3.9957
11.8518,4.0768
11.7707,4.1310
11.6750,4.1500
10.4250,4.1500
10.3293,4.1310
10.2482,4.0768
10.1940,3.9957
10.1750,3.9000
10.1750,3.2750
10.1940,3.1793
10.2482,3.0982
10.3293,3.0440
10.4250,3.0250
Z" /> 
<path style="fill:#B4A09A; fill-opacity:0.9000; stroke:none;fill-rule:evenodd;"
d="M 11.6750,5.9500
11.7707,5.9690
11.8518,6.0232
11.9060,6.1043
11.9250,6.2000
11.9250,6.8250
11.9060,6.9207
11.8518,7.0018
11.7707,7.0560
11.6750,7.0750
10.4250,7.0750
10.3293,7.0560
10.2482,7.0018
10.1940,6.9207
10.1750,6.8250
10.1750,6.2000
10.1940,6.1043
10.2482,6.0232
10.3293,5.9690
10.4250,5.9500
Z" /> 
<path style="fill:#B4A09A; fill-opacity:0.9000; stroke:none;fill-rule:evenodd;"
d="M 21.7000,10.0000
21.7957,10.0190
21.8768,10.0732
21.9310,10.1543
21.9500,10.2500
21.9500,10.9000
21.9310,10.9957
21.8768,11.0768
21.7957,11.1310
21.7000,11.1500
20.4000,11.1500
20.3043,11.1310
20.2232,11.0768
20.1690,10.9957
20.1500,10.9000
20.1500,10.2500
20.1690,10.1543
20.2232,10.0732
20.3043,10.0190
20.4000,10.0000
Z" /> 
<path style="fill:#B4A09A; fill-opacity:0.9000; stroke:none;fill-rule:evenodd;"
d="M 21.7000,12.9500
21.7957,12.9690
21.8768,13.0232
21.9310,13.1043
21.9500,13.2000
21.9500,13.8500
21.9310,13.9457
21.8768,14.0268
21.7957,14.0810
21.7000,14.1000
20.4000,14.1000
20.3043,14.0810
20.2232,14.0268
20.1690,13.9457
20.1500,13.8500
20.1500,13.2000
20.1690,13.1043
20.2232,13.0232
20.3043,12.9690
20.4000,12.9500
Z" /> 
<path style="fill:#B4A09A; fill-opacity:0.9000; stroke:none;fill-rule:evenodd;"
d="M 20.4700,9.1000
20.3743,9.0810
20.2932,9.0268
20.2390,8.9457
20.2200,8.8500
20.2200,8.2000
20.2390,8.1043
20.2932,8.0232
20.3743,7.9690
20.4700,7.9500
21.7700,7.9500
21.8657,7.9690
21.9468,8.0232
22.0010,8.1043
22.0200,8.2000
22.0200,8.8500
22.0010,8.9457
21.9468,9.0268
21.8657,9.0810
21.7700,9.1000
Z" /> 
<path style="fill:#B4A09A; fill-opacity:0.9000; stroke:none;fill-rule:evenodd;"
d="M 20.4700,6.1500
20.3743,6.1310
20.2932,6.0768
20.2390,5.9957
20.2200,5.9000
20.2200,5.2500
20.2390,5.1543
20.2932,5.0732
20.3743,5.0190
20.4700,5.0000
21.7700,5.0000
21.8657,5.0190
21.9468,5.0732
22.0010,5.1543
22.0200,5.2500
22.0200,5.9000
22.0010,5.9957
21.9468,6.0768
21.8657,6.1310
21.7700,6.1500
Z" /> 
<path style="fill:#B4A09A; fill-opacity:0.9000; stroke:none;fill-rule:evenodd;"
d="M 10.7000,10.0000
10.7957,10.0190
10.8768,10.0732
10.9310,10.1543
10.9500,10.2500
10.9500,10.9000
10.9310,10.9957
10.8768,11.0768
10.7957,11.1310
10.7000,11.1500
9.4000,11.1500
9.3043,11.1310
9.2232,11.0768
9.1690,10.9957
9.1500,10.9000
9.1500,10.2500
9.1690,10.1543
9.2232,10.0732
9.3043,10.0190
9.4000,10.0000
Z" /> 
<path style="fill:#B4A09A; fill-opacity:0.9000; stroke:none;fill-rule:evenodd;"
d="M 10.7000,12.9500
10.7957,12.9690
10.8768,13.0232
10.9310,13.1043
10.9500,13.2000
10.9500,13.8500
10.9310,13.9457
10.8768,14.0268
10.7957,14.0810
10.7000,14.1000
9.4000,14.1000
9.3043,14.0810
9.2232,14.0268
9.1690,13.9457
9.1500,13.8500
9.1500,13.2000
9.1690,13.1043
9.2232,13.0232
9.3043,12.9690
9.4000,12.9500
Z" /> 
<path style="fill:#B4A09A; fill-opacity:0.9000; stroke:none;fill-rule:evenodd;"
d="M 15.0000,3.4000
15.0190,3.3043
15.0732,3.2232
15.1543,3.1690
15.2500,3.1500
15.9000,3.1500
15.9957,3.1690
16.0768,3.2232
16.1310,3.3043
16.1500,3.4000
16.1500,4.7000
16.1310,4.7957
16.0768,4.8768
15.9957,4.9310
15.9000,4.9500
15.2500,4.9500
15.1543,4.9310
15.0732,4.8768
15.0190,4.7957
15.0000,4.7000
Z" /> 
<path style="fill:#B4A09A; fill-opacity:0.9000; stroke:none;fill-rule:evenodd;"
d="M 17.9500,3.4000
17.9690,3.3043
18.0232,3.2232
18.1043,3.1690
18.2000,3.1500
18.8500,3.1500
18.9457,3.1690
19.0268,3.2232
19.0810,3.3043
19.1000,3.4000
19.1000,4.7000
19.0810,4.7957
19.0268,4.8768
18.9457,4.9310
18.8500,4.9500
18.2000,4.9500
18.1043,4.9310
18.0232,4.8768
17.9690,4.7957
17.9500,4.7000
Z" /> 
</g>
<g style="fill:none; 
stroke:#F2EDA1; stroke-width:0.1500; stroke-opacity:1; 
stroke-linecap:round; stroke-linejoin:round;">
<text x="13.5500" y="15.3000"
textLength="1.0595" font-size="1.3333" lengthAdjust="spacingAndGlyphs"
text-anchor="start" opacity="0" stroke-opacity="0">x</text>
<g class="stroked-text"><desc>x</desc>
<path d="M13.7915 15.1698
L14.3153 14.5032
" />
<path d="M13.7915 14.5032
L14.3153 15.1698
" />
</g><text x="15.3000" y="13.8000"
textLength="1.0119" font-size="1.3333" lengthAdjust="spacingAndGlyphs"
text-anchor="start" opacity="0" stroke-opacity="0">y</text>
<g class="stroked-text"><desc>y</desc>
<path d="M15.5415 13.0032
L15.7796 13.6698
" />
<path d="M16.0177 13.0032
L15.7796 13.6698
" />
<path d="M15.7796 13.6698
L15.6844 13.9079
" />
<path d="M15.6844 13.9079
L15.6368 13.9555
" />
<path d="M15.6368 13.9555
L15.5415 14.0032
" />
</g><text x="12.0500" y="12.5500"
textLength="1.0595" font-size="1.3333" lengthAdjust="spacingAndGlyphs"
text-anchor="start" opacity="0" stroke-opacity="0">z</text>
<g class="stroked-text"><desc>z</desc>
<path d="M12.2915 11.7532
L12.8153 11.7532
" />
<path d="M12.8153 11.7532
L12.2915 12.4198
" />
<path d="M12.2915 12.4198
L12.8153 12.4198
" />
</g></g>
<g style="fill:none; 
stroke:#F2EDA1; stroke-width:0.1000; stroke-opacity:1; 
stroke-linecap:round; stroke-linejoin:round;">
<circle cx="13.0500" cy="13.0500" r="0.3536" /> 
<path d="M15.0500 13.0500
L14.8000 12.8000
" />
<path d="M14.8000 13.3000
L15.0500 13.0500
" />
<path d="M15.0500 13.0500
L14.8000 13.3000
" />
<path d="M13.0500 15.0500
L12.8000 14.8000
" />
<path d="M13.0500 15.0500
L13.3000 14.8000
" />
<path d="M13.0500 13.0500
L13.0500 15.0500
" />
<path d="M15.0500 13.0500
L13.0500 13.0500
" />
<path d="M13.0500 13.0500
L15.0500 13.0500
" />
<circle cx="12.6300" cy="7.9400" r="0.1980" /> 
</g>
<g style="fill:none; 
stroke:#F2EDA1; stroke-width:0.1200; stroke-opacity:1; 
stroke-linecap:round; stroke-linejoin:round;">
<g transform="rotate(-90.000000 2.3200 12.2700)">
<text x="2.3200" y="12.2700"
textLength="2.1867" font-size="0.9333" lengthAdjust="spacingAndGlyphs"
text-anchor="start" opacity="0" stroke-opacity="0">SDA</text>
</g>
<g class="stroked-text"><desc>SDA</desc>
<path d="M2.1948 12.0577
L2.2281 11.9577
" />
<path d="M2.2281 11.9577
L2.2281 11.7911
" />
<path d="M2.2281 11.7911
L2.1948 11.7244
" />
<path d="M2.1948 11.7244
L2.1614 11.6911
" />
<path d="M2.1614 11.6911
L2.0948 11.6577
" />
<path d="M2.0948 11.6577
L2.0281 11.6577
" />
<path d="M2.0281 11.6577
L1.9614 11.6911
" />
<path d="M1.9614 11.6911
L1.9281 11.7244
" />
<path d="M1.9281 11.7244
L1.8948 11.7911
" />
<path d="M1.8948 11.7911
L1.8614 11.9244
" />
<path d="M1.8614 11.9244
L1.8281 11.9911
" />
<path d="M1.8281 11.9911
L1.7948 12.0244
" />
<path d="M1.7948 12.0244
L1.7281 12.0577
" />
<path d="M1.7281 12.0577
L1.6614 12.0577
" />
<path d="M1.6614 12.0577
L1.5948 12.0244
" />
<path d="M1.5948 12.0244
L1.5614 11.9911
" />
<path d="M1.5614 11.9911
L1.5281 11.9244
" />
<path d="M1.5281 11.9244
L1.5281 11.7577
" />
<path d="M1.5281 11.7577
L1.5614 11.6577
" />
<path d="M2.2281 11.3577
L1.5281 11.3577
" />
<path d="M1.5281 11.3577
L1.5281 11.1911
" />
<path d="M1.5281 11.1911
L1.5614 11.0911
" />
<path d="M1.5614 11.0911
L1.6281 11.0244
" />
<path d="M1.6281 11.0244
L1.6948 10.9911
" />
<path d="M1.6948 10.9911
L1.8281 10.9577
" />
<path d="M1.8281 10.9577
L1.9281 10.9577
" />
<path d="M1.9281 10.9577
L2.0614 10.9911
" />
<path d="M2.0614 10.9911
L2.1281 11.0244
" />
<path d="M2.1281 11.0244
L2.1948 11.0911
" />
<path d="M2.1948 11.0911
L2.2281 11.1911
" />
<path d="M2.2281 11.1911
L2.2281 11.3577
" />
<path d="M2.0281 10.6911
L2.0281 10.3577
" />
<path d="M2.2281 10.7577
L1.5281 10.5244
" />
<path d="M1.5281 10.5244
L2.2281 10.2911
" />
</g><g transform="rotate(-90.000000 2.3200 9.7300)">
<text x="2.3200" y="9.7300"
textLength="2.1533" font-size="0.9333" lengthAdjust="spacingAndGlyphs"
text-anchor="start" opacity="0" stroke-opacity="0">SCL</text>
</g>
<g class="stroked-text"><desc>SCL</desc>
<path d="M2.1948 9.5177
L2.2281 9.4177
" />
<path d="M2.2281 9.4177
L2.2281 9.2511
" />
<path d="M2.2281 9.2511
L2.1948 9.1844
" />
<path d="M2.1948 9.1844
L2.1614 9.1511
" />
<path d="M2.1614 9.1511
L2.0948 9.1177
" />
<path d="M2.0948 9.1177
L2.0281 9.1177
" />
<path d="M2.0281 9.1177
L1.9614 9.1511
" />
<path d="M1.9614 9.1511
L1.9281 9.1844
" />
<path d="M1.9281 9.1844
L1.8948 9.2511
" />
<path d="M1.8948 9.2511
L1.8614 9.3844
" />
<path d="M1.8614 9.3844
L1.8281 9.4511
" />
<path d="M1.8281 9.4511
L1.7948 9.4844
" />
<path d="M1.7948 9.4844
L1.7281 9.5177
" />
<path d="M1.7281 9.5177
L1.6614 9.5177
" />
<path d="M1.6614 9.5177
L1.5948 9.4844
" />
<path d="M1.5948 9.4844
L1.5614 9.4511
" />
<path d="M1.5614 9.4511
L1.5281 9.3844
" />
<path d="M1.5281 9.3844
L1.5281 9.2177
" />
<path d="M1.5281 9.2177
L1.5614 9.1177
" />
<path d="M2.1614 8.4177
L2.1948 8.4511
" />
<path d="M2.1948 8.4511
L2.2281 8.5511
" />
<path d="M2.2281 8.5511
L2.2281 8.6177
" />
<path d="M2.2281 8.6177
L2.1948 8.7177
" />
<path d="M2.1948 8.7177
L2.1281 8.7844
" />
<path d="M2.1281 8.7844
L2.0614 8.8177
" />
<path d="M2.0614 8.8177
L1.9281 8.8511
" />
<path d="M1.9281 8.8511
L1.8281 8.8511
" />
<path d="M1.8281 8.8511
L1.6948 8.8177
" />
<path d="M1.6948 8.8177
L1.6281 8.7844
" />
<path d="M1.6281 8.7844
L1.5614 8.7177
" />
<path d="M1.5614 8.7177
L1.5281 8.6177
" />
<path d="M1.5281 8.6177
L1.5281 8.5511
" />
<path d="M1.5281 8.5511
L1.5614 8.4511
" />
<path d="M1.5614 8.4511
L1.5948 8.4177
" />
<path d="M2.2281 7.7844
L2.2281 8.1177
" />
<path d="M2.2281 8.1177
L1.5281 8.1177
" />
</g><g transform="rotate(-90.000000 2.3200 7.1900)">
<text x="2.3200" y="7.1900"
textLength="2.3533" font-size="0.9333" lengthAdjust="spacingAndGlyphs"
text-anchor="start" opacity="0" stroke-opacity="0">GND</text>
</g>
<g class="stroked-text"><desc>GND</desc>
<path d="M1.5614 6.5777
L1.5281 6.6444
" />
<path d="M1.5281 6.6444
L1.5281 6.7444
" />
<path d="M1.5281 6.7444
L1.5614 6.8444
" />
<path d="M1.5614 6.8444
L1.6281 6.9111
" />
<path d="M1.6281 6.9111
L1.6948 6.9444
" />
<path d="M1.6948 6.9444
L1.8281 6.9777
" />
<path d="M1.8281 6.9777
L1.9281 6.9777
" />
<path d="M1.9281 6.9777
L2.0614 6.9444
" />
<path d="M2.0614 6.9444
L2.1281 6.9111
" />
<path d="M2.1281 6.9111
L2.1948 6.8444
" />
<path d="M2.1948 6.8444
L2.2281 6.7444
" />
<path d="M2.2281 6.7444
L2.2281 6.6777
" />
<path d="M2.2281 6.6777
L2.1948 6.5777
" />
<path d="M2.1948 6.5777
L2.1614 6.5444
" />
<path d="M2.1614 6.5444
L1.9281 6.5444
" />
<path d="M1.9281 6.5444
L1.9281 6.6777
" />
<path d="M2.2281 6.2444
L1.5281 6.2444
" />
<path d="M1.5281 6.2444
L2.2281 5.8444
" />
<path d="M2.2281 5.8444
L1.5281 5.8444
" />
<path d="M2.2281 5.5111
L1.5281 5.5111
" />
<path d="M1.5281 5.5111
L1.5281 5.3444
" />
<path d="M1.5281 5.3444
L1.5614 5.2444
" />
<path d="M1.5614 5.2444
L1.6281 5.1777
" />
<path d="M1.6281 5.1777
L1.6948 5.1444
" />
<path d="M1.6948 5.1444
L1.8281 5.1111
" />
<path d="M1.8281 5.1111
L1.9281 5.1111
" />
<path d="M1.9281 5.1111
L2.0614 5.1444
" />
<path d="M2.0614 5.1444
L2.1281 5.1777
" />
<path d="M2.1281 5.1777
L2.1948 5.2444
" />
<path d="M2.1948 5.2444
L2.2281 5.3444
" />
<path d="M2.2281 5.3444
L2.2281 5.5111
" />
</g><g transform="rotate(-90.000000 2.3200 4.6500)">
<text x="2.3200" y="4.6500"
textLength="2.2200" font-size="0.9333" lengthAdjust="spacingAndGlyphs"
text-anchor="start" opacity="0" stroke-opacity="0">VCC</text>
</g>
<g class="stroked-text"><desc>VCC</desc>
<path d="M1.5281 4.5044
L2.2281 4.2711
" />
<path d="M2.2281 4.2711
L1.5281 4.0377
" />
<path d="M2.1614 3.4044
L2.1948 3.4377
" />
<path d="M2.1948 3.4377
L2.2281 3.5377
" />
<path d="M2.2281 3.5377
L2.2281 3.6044
" />
<path d="M2.2281 3.6044
L2.1948 3.7044
" />
<path d="M2.1948 3.7044
L2.1281 3.7711
" />
<path d="M2.1281 3.7711
L2.0614 3.8044
" />
<path d="M2.0614 3.8044
L1.9281 3.8377
" />
<path d="M1.9281 3.8377
L1.8281 3.8377
" />
<path d="M1.8281 3.8377
L1.6948 3.8044
" />
<path d="M1.6948 3.8044
L1.6281 3.7711
" />
<path d="M1.6281 3.7711
L1.5614 3.7044
" />
<path d="M1.5614 3.7044
L1.5281 3.6044
" />
<path d="M1.5281 3.6044
L1.5281 3.5377
" />
<path d="M1.5281 3.5377
L1.5614 3.4377
" />
<path d="M1.5614 3.4377
L1.5948 3.4044
" />
<path d="M2.1614 2.7044
L2.1948 2.7377
" />
<path d="M2.1948 2.7377
L2.2281 2.8377
" />
<path d="M2.2281 2.8377
L2.2281 2.9044
" />
<path d="M2.2281 2.9044
L2.1948 3.0044
" />
<path d="M2.1948 3.0044
L2.1281 3.0711
" />
<path d="M2.1281 3.0711
L2.0614 3.1044
" />
<path d="M2.0614 3.1044
L1.9281 3.1377
" />
<path d="M1.9281 3.1377
L1.8281 3.1377
" />
<path d="M1.8281 3.1377
L1.6948 3.1044
" />
<path d="M1.6948 3.1044
L1.6281 3.0711
" />
<path d="M1.6281 3.0711
L1.5614 3.0044
" />
<path d="M1.5614 3.0044
L1.5281 2.9044
" />
<path d="M1.5281 2.9044
L1.5281 2.8377
" />
<path d="M1.5281 2.8377
L1.5614 2.7377
" />
<path d="M1.5614 2.7377
L1.5948 2.7044
" />
</g><g transform="rotate(-90.000000 2.3000 15.4800)">
<text x="2.3000" y="15.4800"
textLength="2.9200" font-size="0.9333" lengthAdjust="spacingAndGlyphs"
text-anchor="start" opacity="0" stroke-opacity="0">DRDY</text>
</g>
<g class="stroked-text"><desc>DRDY</desc>
<path d="M2.2081 15.2344
L1.5081 15.2344
" />
<path d="M1.5081 15.2344
L1.5081 15.0677
" />
<path d="M1.5081 15.0677
L1.5414 14.9677
" />
<path d="M1.5414 14.9677
L1.6081 14.9011
" />
<path d="M1.6081 14.9011
L1.6748 14.8677
" />
<path d="M1.6748 14.8677
L1.8081 14.8344
" />
<path d="M1.8081 14.8344
L1.9081 14.8344
" />
<path d="M1.9081 14.8344
L2.0414 14.8677
" />
<path d="M2.0414 14.8677
L2.1081 14.9011
" />
<path d="M2.1081 14.9011
L2.1748 14.9677
" />
<path d="M2.1748 14.9677
L2.2081 15.0677
" />
<path d="M2.2081 15.0677
L2.2081 15.2344
" />
<path d="M2.2081 14.1344
L1.8748 14.3677
" />
<path d="M2.2081 14.5344
L1.5081 14.5344
" />
<path d="M1.5081 14.5344
L1.5081 14.2677
" />
<path d="M1.5081 14.2677
L1.5414 14.2011
" />
<path d="M1.5414 14.2011
L1.5748 14.1677
" />
<path d="M1.5748 14.1677
L1.6414 14.1344
" />
<path d="M1.6414 14.1344
L1.7414 14.1344
" />
<path d="M1.7414 14.1344
L1.8081 14.1677
" />
<path d="M1.8081 14.1677
L1.8414 14.2011
" />
<path d="M1.8414 14.2011
L1.8748 14.2677
" />
<path d="M1.8748 14.2677
L1.8748 14.5344
" />
<path d="M2.2081 13.8344
L1.5081 13.8344
" />
<path d="M1.5081 13.8344
L1.5081 13.6677
" />
<path d="M1.5081 13.6677
L1.5414 13.5677
" />
<path d="M1.5414 13.5677
L1.6081 13.5011
" />
<path d="M1.6081 13.5011
L1.6748 13.4677
" />
<path d="M1.6748 13.4677
L1.8081 13.4344
" />
<path d="M1.8081 13.4344
L1.9081 13.4344
" />
<path d="M1.9081 13.4344
L2.0414 13.4677
" />
<path d="M2.0414 13.4677
L2.1081 13.5011
" />
<path d="M2.1081 13.5011
L2.1748 13.5677
" />
<path d="M2.1748 13.5677
L2.2081 13.6677
" />
<path d="M2.2081 13.6677
L2.2081 13.8344
" />
<path d="M1.8748 13.0011
L2.2081 13.0011
" />
<path d="M1.5081 13.2344
L1.8748 13.0011
" />
<path d="M1.8748 13.0011
L1.5081 12.7677
" />
</g><text x="15.0250" y="9.6500"
textLength="1.6200" font-size="0.9333" lengthAdjust="spacingAndGlyphs"
text-anchor="middle" opacity="0" stroke-opacity="0">U1</text>
<g class="stroked-text"><desc>U1</desc>
<path d="M14.4917 8.9176
L14.4917 9.4843
" />
<path d="M14.4917 9.4843
L14.5250 9.5509
" />
<path d="M14.5250 9.5509
L14.5583 9.5843
" />
<path d="M14.5583 9.5843
L14.6250 9.6176
" />
<path d="M14.6250 9.6176
L14.7583 9.6176
" />
<path d="M14.7583 9.6176
L14.8250 9.5843
" />
<path d="M14.8250 9.5843
L14.8583 9.5509
" />
<path d="M14.8583 9.5509
L14.8917 9.4843
" />
<path d="M14.8917 9.4843
L14.8917 8.9176
" />
<path d="M15.5917 9.6176
L15.1917 9.6176
" />
<path d="M15.3917 9.6176
L15.3917 8.9176
" />
<path d="M15.3917 8.9176
L15.3250 9.0176
" />
<path d="M15.3250 9.0176
L15.2583 9.0843
" />
<path d="M15.2583 9.0843
L15.1917 9.1176
" />
</g><text x="8.9700" y="9.0200"
textLength="5.6867" font-size="0.9333" lengthAdjust="spacingAndGlyphs"
text-anchor="middle" opacity="0" stroke-opacity="0">QMC5883L</text>
<g class="stroked-text"><desc>QMC5883L</desc>
<path d="M6.8700 9.0543
L6.8033 9.0209
" />
<path d="M6.8033 9.0209
L6.7367 8.9543
" />
<path d="M6.7367 8.9543
L6.6367 8.8543
" />
<path d="M6.6367 8.8543
L6.5700 8.8209
" />
<path d="M6.5700 8.8209
L6.5033 8.8209
" />
<path d="M6.5367 8.9876
L6.4700 8.9543
" />
<path d="M6.4700 8.9543
L6.4033 8.8876
" />
<path d="M6.4033 8.8876
L6.3700 8.7543
" />
<path d="M6.3700 8.7543
L6.3700 8.5209
" />
<path d="M6.3700 8.5209
L6.4033 8.3876
" />
<path d="M6.4033 8.3876
L6.4700 8.3209
" />
<path d="M6.4700 8.3209
L6.5367 8.2876
" />
<path d="M6.5367 8.2876
L6.6700 8.2876
" />
<path d="M6.6700 8.2876
L6.7367 8.3209
" />
<path d="M6.7367 8.3209
L6.8033 8.3876
" />
<path d="M6.8033 8.3876
L6.8367 8.5209
" />
<path d="M6.8367 8.5209
L6.8367 8.7543
" />
<path d="M6.8367 8.7543
L6.8033 8.8876
" />
<path d="M6.8033 8.8876
L6.7367 8.9543
" />
<path d="M6.7367 8.9543
L6.6700 8.9876
" />
<path d="M6.6700 8.9876
L6.5367 8.9876
" />
<path d="M7.1367 8.9876
L7.1367 8.2876
" />
<path d="M7.1367 8.2876
L7.3700 8.7876
" />
<path d="M7.3700 8.7876
L7.6033 8.2876
" />
<path d="M7.6033 8.2876
L7.6033 8.9876
" />
<path d="M8.3367 8.9209
L8.3033 8.9543
" />
<path d="M8.3033 8.9543
L8.2033 8.9876
" />
<path d="M8.2033 8.9876
L8.1367 8.9876
" />
<path d="M8.1367 8.9876
L8.0367 8.9543
" />
<path d="M8.0367 8.9543
L7.9700 8.8876
" />
<path d="M7.9700 8.8876
L7.9367 8.8209
" />
<path d="M7.9367 8.8209
L7.9033 8.6876
" />
<path d="M7.9033 8.6876
L7.9033 8.5876
" />
<path d="M7.9033 8.5876
L7.9367 8.4543
" />
<path d="M7.9367 8.4543
L7.9700 8.3876
" />
<path d="M7.9700 8.3876
L8.0367 8.3209
" />
<path d="M8.0367 8.3209
L8.1367 8.2876
" />
<path d="M8.1367 8.2876
L8.2033 8.2876
" />
<path d="M8.2033 8.2876
L8.3033 8.3209
" />
<path d="M8.3033 8.3209
L8.3367 8.3543
" />
<path d="M8.9700 8.2876
L8.6367 8.2876
" />
<path d="M8.6367 8.2876
L8.6033 8.6209
" />
<path d="M8.6033 8.6209
L8.6367 8.5876
" />
<path d="M8.6367 8.5876
L8.7033 8.5543
" />
<path d="M8.7033 8.5543
L8.8700 8.5543
" />
<path d="M8.8700 8.5543
L8.9367 8.5876
" />
<path d="M8.9367 8.5876
L8.9700 8.6209
" />
<path d="M8.9700 8.6209
L9.0033 8.6876
" />
<path d="M9.0033 8.6876
L9.0033 8.8543
" />
<path d="M9.0033 8.8543
L8.9700 8.9209
" />
<path d="M8.9700 8.9209
L8.9367 8.9543
" />
<path d="M8.9367 8.9543
L8.8700 8.9876
" />
<path d="M8.8700 8.9876
L8.7033 8.9876
" />
<path d="M8.7033 8.9876
L8.6367 8.9543
" />
<path d="M8.6367 8.9543
L8.6033 8.9209
" />
<path d="M9.4033 8.5876
L9.3367 8.5543
" />
<path d="M9.3367 8.5543
L9.3033 8.5209
" />
<path d="M9.3033 8.5209
L9.2700 8.4543
" />
<path d="M9.2700 8.4543
L9.2700 8.4209
" />
<path d="M9.2700 8.4209
L9.3033 8.3543
" />
<path d="M9.3033 8.3543
L9.3367 8.3209
" />
<path d="M9.3367 8.3209
L9.4033 8.2876
" />
<path d="M9.4033 8.2876
L9.5367 8.2876
" />
<path d="M9.5367 8.2876
L9.6033 8.3209
" />
<path d="M9.6033 8.3209
L9.6367 8.3543
" />
<path d="M9.6367 8.3543
L9.6700 8.4209
" />
<path d="M9.6700 8.4209
L9.6700 8.4543
" />
<path d="M9.6700 8.4543
L9.6367 8.5209
" />
<path d="M9.6367 8.5209
L9.6033 8.5543
" />
<path d="M9.6033 8.5543
L9.5367 8.5876
" />
<path d="M9.5367 8.5876
L9.4033 8.5876
" />
<path d="M9.4033 8.5876
L9.3367 8.6209
" />
<path d="M9.3367 8.6209
L9.3033 8.6543
" />
<path d="M9.3033 8.6543
L9.2700 8.7209
" />
<path d="M9.2700 8.7209
L9.2700 8.8543
" />
<path d="M9.2700 8.8543
L9.3033 8.9209
" />
<path d="M9.3033 8.9209
L9.3367 8.9543
" />
<path d="M9.3367 8.9543
L9.4033 8.9876
" />
<path d="M9.4033 8.9876
L9.5367 8.9876
" />
<path d="M9.5367 8.9876
L9.6033 8.9543
" />
<path d="M9.6033 8.9543
L9.6367 8.9209
" />
<path d="M9.6367 8.9209
L9.6700 8.8543
" />
<path d="M9.6700 8.8543
L9.6700 8.7209
" />
<path d="M9.6700 8.7209
L9.6367 8.6543
" />
<path d="M9.6367 8.6543
L9.6033 8.6209
" />
<path d="M9.6033 8.6209
L9.5367 8.5876
" />
<path d="M10.0700 8.5876
L10.0033 8.5543
" />
<path d="M10.0033 8.5543
L9.9700 8.5209
" />
<path d="M9.9700 8.5209
L9.9367 8.4543
" />
<path d="M9.9367 8.4543
L9.9367 8.4209
" />
<path d="M9.9367 8.4209
L9.9700 8.3543
" />
<path d="M9.9700 8.3543
L10.0033 8.3209
" />
<path d="M10.0033 8.3209
L10.0700 8.2876
" />
<path d="M10.0700 8.2876
L10.2033 8.2876
" />
<path d="M10.2033 8.2876
L10.2700 8.3209
" />
<path d="M10.2700 8.3209
L10.3033 8.3543
" />
<path d="M10.3033 8.3543
L10.3367 8.4209
" />
<path d="M10.3367 8.4209
L10.3367 8.4543
" />
<path d="M10.3367 8.4543
L10.3033 8.5209
" />
<path d="M10.3033 8.5209
L10.2700 8.5543
" />
<path d="M10.2700 8.5543
L10.2033 8.5876
" />
<path d="M10.2033 8.5876
L10.0700 8.5876
" />
<path d="M10.0700 8.5876
L10.0033 8.6209
" />
<path d="M10.0033 8.6209
L9.9700 8.6543
" />
<path d="M9.9700 8.6543
L9.9367 8.7209
" />
<path d="M9.9367 8.7209
L9.9367 8.8543
" />
<path d="M9.9367 8.8543
L9.9700 8.9209
" />
<path d="M9.9700 8.9209
L10.0033 8.9543
" />
<path d="M10.0033 8.9543
L10.0700 8.9876
" />
<path d="M10.0700 8.9876
L10.2033 8.9876
" />
<path d="M10.2033 8.9876
L10.2700 8.9543
" />
<path d="M10.2700 8.9543
L10.3033 8.9209
" />
<path d="M10.3033 8.9209
L10.3367 8.8543
" />
<path d="M10.3367 8.8543
L10.3367 8.7209
" />
<path d="M10.3367 8.7209
L10.3033 8.6543
" />
<path d="M10.3033 8.6543
L10.2700 8.6209
" />
<path d="M10.2700 8.6209
L10.2033 8.5876
" />
<path d="M10.5700 8.2876
L11.0033 8.2876
" />
<path d="M11.0033 8.2876
L10.7700 8.5543
" />
<path d="M10.7700 8.5543
L10.8700 8.5543
" />
<path d="M10.8700 8.5543
L10.9367 8.5876
" />
<path d="M10.9367 8.5876
L10.9700 8.6209
" />
<path d="M10.9700 8.6209
L11.0033 8.6876
" />
<path d="M11.0033 8.6876
L11.0033 8.8543
" />
<path d="M11.0033 8.8543
L10.9700 8.9209
" />
<path d="M10.9700 8.9209
L10.9367 8.9543
" />
<path d="M10.9367 8.9543
L10.8700 8.9876
" />
<path d="M10.8700 8.9876
L10.6700 8.9876
" />
<path d="M10.6700 8.9876
L10.6033 8.9543
" />
<path d="M10.6033 8.9543
L10.5700 8.9209
" />
<path d="M11.6367 8.9876
L11.3033 8.9876
" />
<path d="M11.3033 8.9876
L11.3033 8.2876
" />
</g><text x="8.0500" y="5.4000"
textLength="1.5867" font-size="0.9333" lengthAdjust="spacingAndGlyphs"
text-anchor="middle" opacity="0" stroke-opacity="0">R2</text>
<g class="stroked-text"><desc>R2</desc>
<path d="M7.9333 5.3676
L7.7000 5.0343
" />
<path d="M7.5333 5.3676
L7.5333 4.6676
" />
<path d="M7.5333 4.6676
L7.8000 4.6676
" />
<path d="M7.8000 4.6676
L7.8667 4.7009
" />
<path d="M7.8667 4.7009
L7.9000 4.7343
" />
<path d="M7.9000 4.7343
L7.9333 4.8009
" />
<path d="M7.9333 4.8009
L7.9333 4.9009
" />
<path d="M7.9333 4.9009
L7.9000 4.9676
" />
<path d="M7.9000 4.9676
L7.8667 5.0009
" />
<path d="M7.8667 5.0009
L7.8000 5.0343
" />
<path d="M7.8000 5.0343
L7.5333 5.0343
" />
<path d="M8.2000 4.7343
L8.2333 4.7009
" />
<path d="M8.2333 4.7009
L8.3000 4.6676
" />
<path d="M8.3000 4.6676
L8.4667 4.6676
" />
<path d="M8.4667 4.6676
L8.5333 4.7009
" />
<path d="M8.5333 4.7009
L8.5667 4.7343
" />
<path d="M8.5667 4.7343
L8.6000 4.8009
" />
<path d="M8.6000 4.8009
L8.6000 4.8676
" />
<path d="M8.6000 4.8676
L8.5667 4.9676
" />
<path d="M8.5667 4.9676
L8.1667 5.3676
" />
<path d="M8.1667 5.3676
L8.6000 5.3676
" />
</g><text x="8.0500" y="2.4000"
textLength="2.5867" font-size="0.9333" lengthAdjust="spacingAndGlyphs"
text-anchor="middle" opacity="0" stroke-opacity="0">4.7K</text>
<g class="stroked-text"><desc>4.7K</desc>
<path d="M7.3333 1.9009
L7.3333 2.3676
" />
<path d="M7.1667 1.6343
L7.0000 2.1343
" />
<path d="M7.0000 2.1343
L7.4333 2.1343
" />
<path d="M7.7000 2.3009
L7.7333 2.3343
" />
<path d="M7.7333 2.3343
L7.7000 2.3676
" />
<path d="M7.7000 2.3676
L7.6667 2.3343
" />
<path d="M7.6667 2.3343
L7.7000 2.3009
" />
<path d="M7.7000 2.3009
L7.7000 2.3676
" />
<path d="M7.9667 1.6676
L8.4333 1.6676
" />
<path d="M8.4333 1.6676
L8.1333 2.3676
" />
<path d="M8.7000 2.3676
L8.7000 1.6676
" />
<path d="M9.1000 2.3676
L8.8000 1.9676
" />
<path d="M9.1000 1.6676
L8.7000 2.0676
" />
</g><text x="11.0500" y="5.4000"
textLength="1.5867" font-size="0.9333" lengthAdjust="spacingAndGlyphs"
text-anchor="middle" opacity="0" stroke-opacity="0">R1</text>
<g class="stroked-text"><desc>R1</desc>
<path d="M10.9333 5.3676
L10.7000 5.0343
" />
<path d="M10.5333 5.3676
L10.5333 4.6676
" />
<path d="M10.5333 4.6676
L10.8000 4.6676
" />
<path d="M10.8000 4.6676
L10.8667 4.7009
" />
<path d="M10.8667 4.7009
L10.9000 4.7343
" />
<path d="M10.9000 4.7343
L10.9333 4.8009
" />
<path d="M10.9333 4.8009
L10.9333 4.9009
" />
<path d="M10.9333 4.9009
L10.9000 4.9676
" />
<path d="M10.9000 4.9676
L10.8667 5.0009
" />
<path d="M10.8667 5.0009
L10.8000 5.0343
" />
<path d="M10.8000 5.0343
L10.5333 5.0343
" />
<path d="M11.6000 5.3676
L11.2000 5.3676
" />
<path d="M11.4000 5.3676
L11.4000 4.6676
" />
<path d="M11.4000 4.6676
L11.3333 4.7676
" />
<path d="M11.3333 4.7676
L11.2667 4.8343
" />
<path d="M11.2667 4.8343
L11.2000 4.8676
" />
</g><text x="11.0500" y="2.4000"
textLength="2.5867" font-size="0.9333" lengthAdjust="spacingAndGlyphs"
text-anchor="middle" opacity="0" stroke-opacity="0">4.7K</text>
<g class="stroked-text"><desc>4.7K</desc>
<path d="M10.3333 1.9009
L10.3333 2.3676
" />
<path d="M10.1667 1.6343
L10.0000 2.1343
" />
<path d="M10.0000 2.1343
L10.4333 2.1343
" />
<path d="M10.7000 2.3009
L10.7333 2.3343
" />
<path d="M10.7333 2.3343
L10.7000 2.3676
" />
<path d="M10.7000 2.3676
L10.6667 2.3343
" />
<path d="M10.6667 2.3343
L10.7000 2.3009
" />
<path d="M10.7000 2.3009
L10.7000 2.3676
" />
<path d="M10.9667 1.6676
L11.4333 1.6676
" />
<path d="M11.4333 1.6676
L11.1333 2.3676
" />
<path d="M11.7000 2.3676
L11.7000 1.6676
" />
<path d="M12.1000 2.3676
L11.8000 1.9676
" />
<path d="M12.1000 1.6676
L11.7000 2.0676
" />
</g><text x="21.0500" y="12.4077"
textLength="1.5867" font-size="0.9333" lengthAdjust="spacingAndGlyphs"
text-anchor="middle" opacity="0" stroke-opacity="0">C4</text>
<g class="stroked-text"><desc>C4</desc>
<path d="M20.9333 12.3086
L20.9000 12.3419
" />
<path d="M20.9000 12.3419
L20.8000 12.3753
" />
<path d="M20.8000 12.3753
L20.7333 12.3753
" />
<path d="M20.7333 12.3753
L20.6333 12.3419
" />
<path d="M20.6333 12.3419
L20.5667 12.2753
" />
<path d="M20.5667 12.2753
L20.5333 12.2086
" />
<path d="M20.5333 12.2086
L20.5000 12.0753
" />
<path d="M20.5000 12.0753
L20.5000 11.9753
" />
<path d="M20.5000 11.9753
L20.5333 11.8419
" />
<path d="M20.5333 11.8419
L20.5667 11.7753
" />
<path d="M20.5667 11.7753
L20.6333 11.7086
" />
<path d="M20.6333 11.7086
L20.7333 11.6753
" />
<path d="M20.7333 11.6753
L20.8000 11.6753
" />
<path d="M20.8000 11.6753
L20.9000 11.7086
" />
<path d="M20.9000 11.7086
L20.9333 11.7419
" />
<path d="M21.5333 11.9086
L21.5333 12.3753
" />
<path d="M21.3667 11.6419
L21.2000 12.1419
" />
<path d="M21.2000 12.1419
L21.6333 12.1419
" />
</g><g transform="rotate(-90.000000 19.0500 12.0500)">
<text x="19.0500" y="12.4000"
textLength="3.1200" font-size="0.9333" lengthAdjust="spacingAndGlyphs"
text-anchor="middle" opacity="0" stroke-opacity="0">4.7uF</text>
</g>
<g class="stroked-text"><desc>4.7uF</desc>
<path d="M18.9009 13.0333
L19.3676 13.0333
" />
<path d="M18.6343 13.2000
L19.1343 13.3667
" />
<path d="M19.1343 13.3667
L19.1343 12.9333
" />
<path d="M19.3009 12.6667
L19.3343 12.6333
" />
<path d="M19.3343 12.6333
L19.3676 12.6667
" />
<path d="M19.3676 12.6667
L19.3343 12.7000
" />
<path d="M19.3343 12.7000
L19.3009 12.6667
" />
<path d="M19.3009 12.6667
L19.3676 12.6667
" />
<path d="M18.6676 12.4000
L18.6676 11.9333
" />
<path d="M18.6676 11.9333
L19.3676 12.2333
" />
<path d="M18.9009 11.3667
L19.3676 11.3667
" />
<path d="M18.9009 11.6667
L19.2676 11.6667
" />
<path d="M19.2676 11.6667
L19.3343 11.6333
" />
<path d="M19.3343 11.6333
L19.3676 11.5667
" />
<path d="M19.3676 11.5667
L19.3676 11.4667
" />
<path d="M19.3676 11.4667
L19.3343 11.4000
" />
<path d="M19.3343 11.4000
L19.3009 11.3667
" />
<path d="M19.0009 10.8000
L19.0009 11.0333
" />
<path d="M19.3676 11.0333
L18.6676 11.0333
" />
<path d="M18.6676 11.0333
L18.6676 10.7000
" />
</g><text x="21.1200" y="7.3923"
textLength="1.5867" font-size="0.9333" lengthAdjust="spacingAndGlyphs"
text-anchor="middle" opacity="0" stroke-opacity="0">C3</text>
<g class="stroked-text"><desc>C3</desc>
<path d="M21.0033 7.2933
L20.9700 7.3266
" />
<path d="M20.9700 7.3266
L20.8700 7.3599
" />
<path d="M20.8700 7.3599
L20.8033 7.3599
" />
<path d="M20.8033 7.3599
L20.7033 7.3266
" />
<path d="M20.7033 7.3266
L20.6367 7.2599
" />
<path d="M20.6367 7.2599
L20.6033 7.1933
" />
<path d="M20.6033 7.1933
L20.5700 7.0599
" />
<path d="M20.5700 7.0599
L20.5700 6.9599
" />
<path d="M20.5700 6.9599
L20.6033 6.8266
" />
<path d="M20.6033 6.8266
L20.6367 6.7599
" />
<path d="M20.6367 6.7599
L20.7033 6.6933
" />
<path d="M20.7033 6.6933
L20.8033 6.6599
" />
<path d="M20.8033 6.6599
L20.8700 6.6599
" />
<path d="M20.8700 6.6599
L20.9700 6.6933
" />
<path d="M20.9700 6.6933
L21.0033 6.7266
" />
<path d="M21.2367 6.6599
L21.6700 6.6599
" />
<path d="M21.6700 6.6599
L21.4367 6.9266
" />
<path d="M21.4367 6.9266
L21.5367 6.9266
" />
<path d="M21.5367 6.9266
L21.6033 6.9599
" />
<path d="M21.6033 6.9599
L21.6367 6.9933
" />
<path d="M21.6367 6.9933
L21.6700 7.0599
" />
<path d="M21.6700 7.0599
L21.6700 7.2266
" />
<path d="M21.6700 7.2266
L21.6367 7.2933
" />
<path d="M21.6367 7.2933
L21.6033 7.3266
" />
<path d="M21.6033 7.3266
L21.5367 7.3599
" />
<path d="M21.5367 7.3599
L21.3367 7.3599
" />
<path d="M21.3367 7.3599
L21.2700 7.3266
" />
<path d="M21.2700 7.3266
L21.2367 7.2933
" />
</g><g transform="rotate(-90.000000 19.0500 7.0500)">
<text x="19.0500" y="7.4000"
textLength="3.4533" font-size="0.9333" lengthAdjust="spacingAndGlyphs"
text-anchor="middle" opacity="0" stroke-opacity="0">220nF</text>
</g>
<g class="stroked-text"><desc>220nF</desc>
<path d="M18.7343 8.5333
L18.7009 8.5000
" />
<path d="M18.7009 8.5000
L18.6676 8.4333
" />
<path d="M18.6676 8.4333
L18.6676 8.2667
" />
<path d="M18.6676 8.2667
L18.7009 8.2000
" />
<path d="M18.7009 8.2000
L18.7343 8.1667
" />
<path d="M18.7343 8.1667
L18.8009 8.1333
" />
<path d="M18.8009 8.1333
L18.8676 8.1333
" />
<path d="M18.8676 8.1333
L18.9676 8.1667
" />
<path d="M18.9676 8.1667
L19.3676 8.5667
" />
<path d="M19.3676 8.5667
L19.3676 8.1333
" />
<path d="M18.7343 7.8667
L18.7009 7.8333
" />
<path d="M18.7009 7.8333
L18.6676 7.7667
" />
<path d="M18.6676 7.7667
L18.6676 7.6000
" />
<path d="M18.6676 7.6000
L18.7009 7.5333
" />
<path d="M18.7009 7.5333
L18.7343 7.5000
" />
<path d="M18.7343 7.5000
L18.8009 7.4667
" />
<path d="M18.8009 7.4667
L18.8676 7.4667
" />
<path d="M18.8676 7.4667
L18.9676 7.5000
" />
<path d="M18.9676 7.5000
L19.3676 7.9000
" />
<path d="M19.3676 7.9000
L19.3676 7.4667
" />
<path d="M18.6676 7.0333
L18.6676 6.9667
" />
<path d="M18.6676 6.9667
L18.7009 6.9000
" />
<path d="M18.7009 6.9000
L18.7343 6.8667
" />
<path d="M18.7343 6.8667
L18.8009 6.8333
" />
<path d="M18.8009 6.8333
L18.9343 6.8000
" />
<path d="M18.9343 6.8000
L19.1009 6.8000
" />
<path d="M19.1009 6.8000
L19.2343 6.8333
" />
<path d="M19.2343 6.8333
L19.3009 6.8667
" />
<path d="M19.3009 6.8667
L19.3343 6.9000
" />
<path d="M19.3343 6.9000
L19.3676 6.9667
" />
<path d="M19.3676 6.9667
L19.3676 7.0333
" />
<path d="M19.3676 7.0333
L19.3343 7.1000
" />
<path d="M19.3343 7.1000
L19.3009 7.1333
" />
<path d="M19.3009 7.1333
L19.2343 7.1667
" />
<path d="M19.2343 7.1667
L19.1009 7.2000
" />
<path d="M19.1009 7.2000
L18.9343 7.2000
" />
<path d="M18.9343 7.2000
L18.8009 7.1667
" />
<path d="M18.8009 7.1667
L18.7343 7.1333
" />
<path d="M18.7343 7.1333
L18.7009 7.1000
" />
<path d="M18.7009 7.1000
L18.6676 7.0333
" />
<path d="M18.9009 6.5000
L19.3676 6.5000
" />
<path d="M18.9676 6.5000
L18.9343 6.4667
" />
<path d="M18.9343 6.4667
L18.9009 6.4000
" />
<path d="M18.9009 6.4000
L18.9009 6.3000
" />
<path d="M18.9009 6.3000
L18.9343 6.2333
" />
<path d="M18.9343 6.2333
L19.0009 6.2000
" />
<path d="M19.0009 6.2000
L19.3676 6.2000
" />
<path d="M19.0009 5.6333
L19.0009 5.8667
" />
<path d="M19.3676 5.8667
L18.6676 5.8667
" />
<path d="M18.6676 5.8667
L18.6676 5.5333
" />
</g><text x="10.0500" y="12.4077"
textLength="1.5867" font-size="0.9333" lengthAdjust="spacingAndGlyphs"
text-anchor="middle" opacity="0" stroke-opacity="0">C2</text>
<g class="stroked-text"><desc>C2</desc>
<path d="M9.9333 12.3086
L9.9000 12.3419
" />
<path d="M9.9000 12.3419
L9.8000 12.3753
" />
<path d="M9.8000 12.3753
L9.7333 12.3753
" />
<path d="M9.7333 12.3753
L9.6333 12.3419
" />
<path d="M9.6333 12.3419
L9.5667 12.2753
" />
<path d="M9.5667 12.2753
L9.5333 12.2086
" />
<path d="M9.5333 12.2086
L9.5000 12.0753
" />
<path d="M9.5000 12.0753
L9.5000 11.9753
" />
<path d="M9.5000 11.9753
L9.5333 11.8419
" />
<path d="M9.5333 11.8419
L9.5667 11.7753
" />
<path d="M9.5667 11.7753
L9.6333 11.7086
" />
<path d="M9.6333 11.7086
L9.7333 11.6753
" />
<path d="M9.7333 11.6753
L9.8000 11.6753
" />
<path d="M9.8000 11.6753
L9.9000 11.7086
" />
<path d="M9.9000 11.7086
L9.9333 11.7419
" />
<path d="M10.2000 11.7419
L10.2333 11.7086
" />
<path d="M10.2333 11.7086
L10.3000 11.6753
" />
<path d="M10.3000 11.6753
L10.4667 11.6753
" />
<path d="M10.4667 11.6753
L10.5333 11.7086
" />
<path d="M10.5333 11.7086
L10.5667 11.7419
" />
<path d="M10.5667 11.7419
L10.6000 11.8086
" />
<path d="M10.6000 11.8086
L10.6000 11.8753
" />
<path d="M10.6000 11.8753
L10.5667 11.9753
" />
<path d="M10.5667 11.9753
L10.1667 12.3753
" />
<path d="M10.1667 12.3753
L10.6000 12.3753
" />
</g><g transform="rotate(-90.000000 8.0500 12.0500)">
<text x="8.0500" y="12.4000"
textLength="3.4533" font-size="0.9333" lengthAdjust="spacingAndGlyphs"
text-anchor="middle" opacity="0" stroke-opacity="0">100nF</text>
</g>
<g class="stroked-text"><desc>100nF</desc>
<path d="M8.3676 13.1333
L8.3676 13.5333
" />
<path d="M8.3676 13.3333
L7.6676 13.3333
" />
<path d="M7.6676 13.3333
L7.7676 13.4000
" />
<path d="M7.7676 13.4000
L7.8343 13.4667
" />
<path d="M7.8343 13.4667
L7.8676 13.5333
" />
<path d="M7.6676 12.7000
L7.6676 12.6333
" />
<path d="M7.6676 12.6333
L7.7009 12.5667
" />
<path d="M7.7009 12.5667
L7.7343 12.5333
" />
<path d="M7.7343 12.5333
L7.8009 12.5000
" />
<path d="M7.8009 12.5000
L7.9343 12.4667
" />
<path d="M7.9343 12.4667
L8.1009 12.4667
" />
<path d="M8.1009 12.4667
L8.2343 12.5000
" />
<path d="M8.2343 12.5000
L8.3009 12.5333
" />
<path d="M8.3009 12.5333
L8.3343 12.5667
" />
<path d="M8.3343 12.5667
L8.3676 12.6333
" />
<path d="M8.3676 12.6333
L8.3676 12.7000
" />
<path d="M8.3676 12.7000
L8.3343 12.7667
" />
<path d="M8.3343 12.7667
L8.3009 12.8000
" />
<path d="M8.3009 12.8000
L8.2343 12.8333
" />
<path d="M8.2343 12.8333
L8.1009 12.8667
" />
<path d="M8.1009 12.8667
L7.9343 12.8667
" />
<path d="M7.9343 12.8667
L7.8009 12.8333
" />
<path d="M7.8009 12.8333
L7.7343 12.8000
" />
<path d="M7.7343 12.8000
L7.7009 12.7667
" />
<path d="M7.7009 12.7667
L7.6676 12.7000
" />
<path d="M7.6676 12.0333
L7.6676 11.9667
" />
<path d="M7.6676 11.9667
L7.7009 11.9000
" />
<path d="M7.7009 11.9000
L7.7343 11.8667
" />
<path d="M7.7343 11.8667
L7.8009 11.8333
" />
<path d="M7.8009 11.8333
L7.9343 11.8000
" />
<path d="M7.9343 11.8000
L8.1009 11.8000
" />
<path d="M8.1009 11.8000
L8.2343 11.8333
" />
<path d="M8.2343 11.8333
L8.3009 11.8667
" />
<path d="M8.3009 11.8667
L8.3343 11.9000
" />
<path d="M8.3343 11.9000
L8.3676 11.9667
" />
<path d="M8.3676 11.9667
L8.3676 12.0333
" />
<path d="M8.3676 12.0333
L8.3343 12.1000
" />
<path d="M8.3343 12.1000
L8.3009 12.1333
" />
<path d="M8.3009 12.1333
L8.2343 12.1667
" />
<path d="M8.2343 12.1667
L8.1009 12.2000
" />
<path d="M8.1009 12.2000
L7.9343 12.2000
" />
<path d="M7.9343 12.2000
L7.8009 12.1667
" />
<path d="M7.8009 12.1667
L7.7343 12.1333
" />
<path d="M7.7343 12.1333
L7.7009 12.1000
" />
<path d="M7.7009 12.1000
L7.6676 12.0333
" />
<path d="M7.9009 11.5000
L8.3676 11.5000
" />
<path d="M7.9676 11.5000
L7.9343 11.4667
" />
<path d="M7.9343 11.4667
L7.9009 11.4000
" />
<path d="M7.9009 11.4000
L7.9009 11.3000
" />
<path d="M7.9009 11.3000
L7.9343 11.2333
" />
<path d="M7.9343 11.2333
L8.0009 11.2000
" />
<path d="M8.0009 11.2000
L8.3676 11.2000
" />
<path d="M8.0009 10.6333
L8.0009 10.8667
" />
<path d="M8.3676 10.8667
L7.6676 10.8667
" />
<path d="M7.6676 10.8667
L7.6676 10.5333
" />
</g><text x="17.0577" y="4.4000"
textLength="1.5867" font-size="0.9333" lengthAdjust="spacingAndGlyphs"
text-anchor="middle" opacity="0" stroke-opacity="0">C1</text>
<g class="stroked-text"><desc>C1</desc>
<path d="M16.9410 4.3009
L16.9077 4.3343
" />
<path d="M16.9077 4.3343
L16.8077 4.3676
" />
<path d="M16.8077 4.3676
L16.7410 4.3676
" />
<path d="M16.7410 4.3676
L16.6410 4.3343
" />
<path d="M16.6410 4.3343
L16.5743 4.2676
" />
<path d="M16.5743 4.2676
L16.5410 4.2009
" />
<path d="M16.5410 4.2009
L16.5077 4.0676
" />
<path d="M16.5077 4.0676
L16.5077 3.9676
" />
<path d="M16.5077 3.9676
L16.5410 3.8343
" />
<path d="M16.5410 3.8343
L16.5743 3.7676
" />
<path d="M16.5743 3.7676
L16.6410 3.7009
" />
<path d="M16.6410 3.7009
L16.7410 3.6676
" />
<path d="M16.7410 3.6676
L16.8077 3.6676
" />
<path d="M16.8077 3.6676
L16.9077 3.7009
" />
<path d="M16.9077 3.7009
L16.9410 3.7343
" />
<path d="M17.6077 4.3676
L17.2077 4.3676
" />
<path d="M17.4077 4.3676
L17.4077 3.6676
" />
<path d="M17.4077 3.6676
L17.3410 3.7676
" />
<path d="M17.3410 3.7676
L17.2743 3.8343
" />
<path d="M17.2743 3.8343
L17.2077 3.8676
" />
</g><text x="17.0500" y="2.4000"
textLength="3.4533" font-size="0.9333" lengthAdjust="spacingAndGlyphs"
text-anchor="middle" opacity="0" stroke-opacity="0">100nF</text>
<g class="stroked-text"><desc>100nF</desc>
<path d="M15.9667 2.3676
L15.5667 2.3676
" />
<path d="M15.7667 2.3676
L15.7667 1.6676
" />
<path d="M15.7667 1.6676
L15.7000 1.7676
" />
<path d="M15.7000 1.7676
L15.6333 1.8343
" />
<path d="M15.6333 1.8343
L15.5667 1.8676
" />
<path d="M16.4000 1.6676
L16.4667 1.6676
" />
<path d="M16.4667 1.6676
L16.5333 1.7009
" />
<path d="M16.5333 1.7009
L16.5667 1.7343
" />
<path d="M16.5667 1.7343
L16.6000 1.8009
" />
<path d="M16.6000 1.8009
L16.6333 1.9343
" />
<path d="M16.6333 1.9343
L16.6333 2.1009
" />
<path d="M16.6333 2.1009
L16.6000 2.2343
" />
<path d="M16.6000 2.2343
L16.5667 2.3009
" />
<path d="M16.5667 2.3009
L16.5333 2.3343
" />
<path d="M16.5333 2.3343
L16.4667 2.3676
" />
<path d="M16.4667 2.3676
L16.4000 2.3676
" />
<path d="M16.4000 2.3676
L16.3333 2.3343
" />
<path d="M16.3333 2.3343
L16.3000 2.3009
" />
<path d="M16.3000 2.3009
L16.2667 2.2343
" />
<path d="M16.2667 2.2343
L16.2333 2.1009
" />
<path d="M16.2333 2.1009
L16.2333 1.9343
" />
<path d="M16.2333 1.9343
L16.2667 1.8009
" />
<path d="M16.2667 1.8009
L16.3000 1.7343
" />
<path d="M16.3000 1.7343
L16.3333 1.7009
" />
<path d="M16.3333 1.7009
L16.4000 1.6676
" />
<path d="M17.0667 1.6676
L17.1333 1.6676
" />
<path d="M17.1333 1.6676
L17.2000 1.7009
" />
<path d="M17.2000 1.7009
L17.2333 1.7343
" />
<path d="M17.2333 1.7343
L17.2667 1.8009
" />
<path d="M17.2667 1.8009
L17.3000 1.9343
" />
<path d="M17.3000 1.9343
L17.3000 2.1009
" />
<path d="M17.3000 2.1009
L17.2667 2.2343
" />
<path d="M17.2667 2.2343
L17.2333 2.3009
" />
<path d="M17.2333 2.3009
L17.2000 2.3343
" />
<path d="M17.2000 2.3343
L17.1333 2.3676
" />
<path d="M17.1333 2.3676
L17.0667 2.3676
" />
<path d="M17.0667 2.3676
L17.0000 2.3343
" />
<path d="M17.0000 2.3343
L16.9667 2.3009
" />
<path d="M16.9667 2.3009
L16.9333 2.2343
" />
<path d="M16.9333 2.2343
L16.9000 2.1009
" />
<path d="M16.9000 2.1009
L16.9000 1.9343
" />
<path d="M16.9000 1.9343
L16.9333 1.8009
" />
<path d="M16.9333 1.8009
L16.9667 1.7343
" />
<path d="M16.9667 1.7343
L17.0000 1.7009
" />
<path d="M17.0000 1.7009
L17.0667 1.6676
" />
<path d="M17.6000 1.9009
L17.6000 2.3676
" />
<path d="M17.6000 1.9676
L17.6333 1.9343
" />
<path d="M17.6333 1.9343
L17.7000 1.9009
" />
<path d="M17.7000 1.9009
L17.8000 1.9009
" />
<path d="M17.8000 1.9009
L17.8667 1.9343
" />
<path d="M17.8667 1.9343
L17.9000 2.0009
" />
<path d="M17.9000 2.0009
L17.9000 2.3676
" />
<path d="M18.4667 2.0009
L18.2333 2.0009
" />
<path d="M18.2333 2.3676
L18.2333 1.6676
" />
<path d="M18.2333 1.6676
L18.5667 1.6676
" />
</g></g>
<g style="fill:none; 
stroke:#F2EDA1; stroke-width:0.1000; stroke-opacity:1; 
stroke-linecap:round; stroke-linejoin:round;">
<path d="M13.4250 7.7000
L13.4250 8.2000
" />
<path d="M13.4250 7.7000
L13.9250 7.7000
" />
<path d="M13.4250 10.9000
L13.4250 10.4000
" />
<path d="M13.4250 10.9000
L13.9250 10.9000
" />
<path d="M16.1250 7.7000
L16.6250 7.7000
" />
<path d="M16.6250 7.7000
L16.6250 8.2000
" />
<path d="M16.6250 10.9000
L16.1250 10.9000
" />
<path d="M16.6250 10.9000
L16.6250 10.4000
" />
<path style="fill:#F2EDA1; fill-opacity:1.0000; 
stroke:#F2EDA1; stroke-width:0.1200; stroke-opacity:1; 
stroke-linecap:round; stroke-linejoin:round;fill-rule:evenodd;"
d="M 13.3500,8.5500
13.0140,8.7900
13.0140,8.3100
Z" /> 
</g>
<g style="fill:none; 
stroke:#F2EDA1; stroke-width:0.1200; stroke-opacity:1; 
stroke-linecap:round; stroke-linejoin:round;">
<path d="M9.2500 2.7500
L6.8500 2.7500
" />
<path d="M9.2500 7.3500
L9.2500 2.7500
" />
<path d="M6.8500 2.7500
L6.8500 7.3500
" />
<path d="M6.8500 7.3500
L9.2500 7.3500
" />
<path d="M12.2500 2.7500
L9.8500 2.7500
" />
<path d="M12.2500 7.3500
L12.2500 2.7500
" />
<path d="M9.8500 2.7500
L9.8500 7.3500
" />
<path d="M9.8500 7.3500
L12.2500 7.3500
" />
<path d="M22.2500 14.1500
L22.2500 9.9500
" />
<path d="M19.8500 9.9500
L19.8500 14.1500
" />
<path d="M19.8500 14.1500 A1.8501 1.8501 0.0 0 0 22.2500 14.1500" />
<path d="M22.2500 9.9500 A1.9010 1.9010 0.0 0 0 19.8500 9.9500" />
<path d="M19.9200 4.9500
L19.9200 9.1500
" />
<path d="M22.3200 9.1500
L22.3200 4.9500
" />
<path d="M22.3200 4.9500 A1.8501 1.8501 0.0 0 0 19.9200 4.9500" />
<path d="M19.9200 9.1500 A1.9010 1.9010 0.0 0 0 22.3200 9.1500" />
<path d="M11.2500 14.1500
L11.2500 9.9500
" />
<path d="M8.8500 9.9500
L8.8500 14.1500
" />
<path d="M8.8500 14.1500 A1.8501 1.8501 0.0 0 0 11.2500 14.1500" />
<path d="M11.2500 9.9500 A1.9010 1.9010 0.0 0 0 8.8500 9.9500" />
<path d="M19.1500 2.8500
L14.9500 2.8500
" />
<path d="M14.9500 5.2500
L19.1500 5.2500
" />
<path d="M19.1500 5.2500 A1.8501 1.8501 0.0 0 0 19.1500 2.8500" />
<path d="M14.9500 2.8500 A1.9010 1.9010 0.0 0 0 14.9500 5.2500" />
</g> 
</svg>
